<svg width="123" height="151" viewBox="0 0 123 151" fill="none" xmlns="http://www.w3.org/2000/svg">
<g filter="url(#filter0_d_702_3160)">
<mask id="path-1-inside-1_702_3160" fill="white">
<path fill-rule="evenodd" clip-rule="evenodd" d="M31.3072 0.899414C28.0864 0.899414 25.5445 3.63652 25.7824 6.84852L31.3325 81.7745C31.4118 82.8452 30.5645 83.7576 29.4909 83.7576H3.78853C0.498205 83.7576 -1.14959 87.7357 1.17702 90.0623L56.1275 145.013C59.0121 147.897 63.689 147.897 66.5736 145.013L121.524 90.0623C123.851 87.7357 122.203 83.7576 118.913 83.7576H93.9598C92.8929 83.7576 92.048 82.8561 92.117 81.7915L96.9777 6.79759C97.1847 3.60373 94.65 0.899414 91.4495 0.899414H31.3072Z"/>
</mask>
<path fill-rule="evenodd" clip-rule="evenodd" d="M31.3072 0.899414C28.0864 0.899414 25.5445 3.63652 25.7824 6.84852L31.3325 81.7745C31.4118 82.8452 30.5645 83.7576 29.4909 83.7576H3.78853C0.498205 83.7576 -1.14959 87.7357 1.17702 90.0623L56.1275 145.013C59.0121 147.897 63.689 147.897 66.5736 145.013L121.524 90.0623C123.851 87.7357 122.203 83.7576 118.913 83.7576H93.9598C92.8929 83.7576 92.048 82.8561 92.117 81.7915L96.9777 6.79759C97.1847 3.60373 94.65 0.899414 91.4495 0.899414H31.3072Z" fill="#FFCF53"/>
<path d="M25.7824 6.84852L23.9408 6.98493L23.9408 6.98493L25.7824 6.84852ZM1.17702 90.0623L-0.128737 91.3681L-0.128736 91.3681L1.17702 90.0623ZM56.1275 145.013L57.4333 143.707L57.4333 143.707L56.1275 145.013ZM66.5736 145.013L67.8793 146.319L67.8793 146.319L66.5736 145.013ZM96.9777 6.79759L95.135 6.67815L95.135 6.67816L96.9777 6.79759ZM92.117 81.7915L90.2742 81.6721L92.117 81.7915ZM31.3325 81.7745L29.4909 81.9109L29.4909 81.9109L31.3325 81.7745ZM27.624 6.71211C27.4654 4.57077 29.16 2.74604 31.3072 2.74604V-0.947208C27.0128 -0.947208 23.6236 2.70227 23.9408 6.98493L27.624 6.71211ZM33.1741 81.6381L27.624 6.71211L23.9408 6.98493L29.4909 81.9109L33.1741 81.6381ZM3.78853 85.6042H29.4909V81.9109H3.78853V85.6042ZM2.48278 88.7566C1.31947 87.5933 2.14338 85.6042 3.78853 85.6042V81.9109C-1.14697 81.9109 -3.61865 87.8782 -0.128737 91.3681L2.48278 88.7566ZM57.4333 143.707L2.48278 88.7566L-0.128736 91.3681L54.8217 146.319L57.4333 143.707ZM65.2678 143.707C63.1044 145.87 59.5967 145.871 57.4333 143.707L54.8217 146.319C58.4275 149.924 64.2736 149.924 67.8793 146.319L65.2678 143.707ZM120.218 88.7566L65.2678 143.707L67.8793 146.319L122.83 91.3681L120.218 88.7566ZM118.913 85.6042C120.558 85.6042 121.382 87.5933 120.218 88.7566L122.83 91.3681C126.32 87.8782 123.848 81.9109 118.913 81.9109V85.6042ZM93.9598 85.6042H118.913V81.9109H93.9598V85.6042ZM95.135 6.67816L90.2742 81.6721L93.9598 81.9109L98.8205 6.91703L95.135 6.67816ZM91.4495 2.74604C93.5832 2.74604 95.273 4.54891 95.135 6.67815L98.8205 6.91704C99.0965 2.65855 95.7169 -0.947208 91.4495 -0.947208V2.74604ZM31.3072 2.74604H91.4495V-0.947208H31.3072V2.74604ZM93.9598 81.9109L93.9598 81.9109L90.2742 81.6721C90.1362 83.8013 91.826 85.6042 93.9598 85.6042V81.9109ZM29.4909 81.9109L29.4909 81.9109V85.6042C31.6381 85.6042 33.3327 83.7794 33.1741 81.6381L29.4909 81.9109Z" fill="black" mask="url(#path-1-inside-1_702_3160)"/>
</g>
<defs>
<filter id="filter0_d_702_3160" x="0.0878906" y="0.899414" width="122.525" height="149.97" filterUnits="userSpaceOnUse" color-interpolation-filters="sRGB">
<feFlood flood-opacity="0" result="BackgroundImageFix"/>
<feColorMatrix in="SourceAlpha" type="matrix" values="0 0 0 0 0 0 0 0 0 0 0 0 0 0 0 0 0 0 127 0" result="hardAlpha"/>
<feOffset dy="3.69324"/>
<feComposite in2="hardAlpha" operator="out"/>
<feColorMatrix type="matrix" values="0 0 0 0 0 0 0 0 0 0 0 0 0 0 0 0 0 0 1 0"/>
<feBlend mode="normal" in2="BackgroundImageFix" result="effect1_dropShadow_702_3160"/>
<feBlend mode="normal" in="SourceGraphic" in2="effect1_dropShadow_702_3160" result="shape"/>
</filter>
</defs>
</svg>
