<svg width="136" height="169" viewBox="0 0 136 169" fill="none" xmlns="http://www.w3.org/2000/svg">
<path d="M126.848 100.478C130.139 100.478 131.787 104.456 129.46 106.783L73.1054 163.137C70.2208 166.022 65.544 166.022 62.6594 163.137L6.30491 106.783C3.97829 104.456 5.62609 100.478 8.91642 100.478H126.848Z" fill="black"/>
<path fill-rule="evenodd" clip-rule="evenodd" d="M38.469 1H97.595C101.063 1 103.808 3.93089 103.582 7.39113L97.8661 94.8911C97.8532 95.0898 97.8306 95.2856 97.799 95.4783H126.04C129.33 95.4783 130.978 99.4564 128.651 101.783L73.701 156.734C70.8164 159.618 66.1395 159.618 63.2549 156.734L8.30446 101.783C5.97785 99.4564 7.62565 95.4783 10.916 95.4783H39.1445C39.116 95.305 39.0949 95.1292 39.0815 94.951L32.486 7.45099C32.2235 3.96947 34.9776 1 38.469 1Z" fill="#FFCF53"/>
<path d="M103.582 7.39113L104.58 7.45631L104.58 7.45631L103.582 7.39113ZM97.8661 94.8911L98.864 94.9563L98.864 94.9563L97.8661 94.8911ZM97.799 95.4783L96.8122 95.3162L96.6213 96.4783H97.799V95.4783ZM128.651 101.783L127.944 101.076L127.944 101.076L128.651 101.783ZM73.701 156.734L74.4081 157.441L74.4081 157.441L73.701 156.734ZM63.2549 156.734L62.5478 157.441L62.5478 157.441L63.2549 156.734ZM8.30446 101.783L7.59736 102.49L7.59736 102.49L8.30446 101.783ZM39.1445 95.4783V96.4783H40.3222L40.1312 95.3161L39.1445 95.4783ZM39.0815 94.951L40.0786 94.8758L40.0786 94.8758L39.0815 94.951ZM32.486 7.45099L33.4831 7.37583L32.486 7.45099ZM97.595 0H38.469V2H97.595V0ZM104.58 7.45631C104.844 3.41937 101.641 0 97.595 0V2C100.485 2 102.773 4.44241 102.584 7.32594L104.58 7.45631ZM98.864 94.9563L104.58 7.45631L102.584 7.32594L96.8683 94.8259L98.864 94.9563ZM98.7858 95.6403C98.8227 95.4157 98.8489 95.1875 98.864 94.9563L96.8683 94.8259C96.8574 94.9921 96.8386 95.1556 96.8122 95.3162L98.7858 95.6403ZM97.799 96.4783H126.04V94.4783H97.799V96.4783ZM126.04 96.4783C128.439 96.4783 129.641 99.3793 127.944 101.076L129.359 102.49C132.315 99.5336 130.221 94.4783 126.04 94.4783V96.4783ZM127.944 101.076L72.9939 156.026L74.4081 157.441L129.359 102.49L127.944 101.076ZM72.9939 156.026C70.4998 158.52 66.4561 158.52 63.9621 156.026L62.5478 157.441C65.823 160.716 71.133 160.716 74.4081 157.441L72.9939 156.026ZM63.9621 156.026L9.01157 101.076L7.59736 102.49L62.5478 157.441L63.9621 156.026ZM9.01157 101.076C7.31492 99.3793 8.51656 96.4783 10.916 96.4783V94.4783C6.73474 94.4783 4.64078 99.5336 7.59736 102.49L9.01157 101.076ZM10.916 96.4783H39.1445V94.4783H10.916V96.4783ZM38.0843 95.0261C38.0999 95.2335 38.1245 95.4384 38.1577 95.6404L40.1312 95.3161C40.1075 95.1717 40.0899 95.0248 40.0786 94.8758L38.0843 95.0261ZM31.4888 7.52615L38.0843 95.0261L40.0786 94.8758L33.4831 7.37583L31.4888 7.52615ZM38.469 0C34.3957 0 31.1826 3.46438 31.4888 7.52615L33.4831 7.37583C33.2645 4.47455 35.5595 2 38.469 2V0Z" fill="black"/>
</svg>
