<svg width="41" height="40" viewBox="0 0 41 40" fill="none" xmlns="http://www.w3.org/2000/svg">
<path d="M27.4404 5H29.1071V10H27.4404V5Z" fill="black"/>
<path d="M12.4404 5H14.1071V10H12.4404V5Z" fill="black"/>
<path d="M30.7738 8.3335V13.3335H25.7738V8.3335H15.7738V13.3335H10.7738V8.3335H7.44043V33.3335H34.1071V8.3335H30.7738ZM12.4404 31.6668H9.1071V28.3335H12.4404V31.6668ZM12.4404 26.6668H9.1071V23.3335H12.4404V26.6668ZM12.4404 21.6668H9.1071V18.3335H12.4404V21.6668ZM17.4404 31.6668H14.1071V28.3335H17.4404V31.6668ZM17.4404 26.6668H14.1071V23.3335H17.4404V26.6668ZM17.4404 21.6668H14.1071V18.3335H17.4404V21.6668ZM22.4404 31.6668H19.1071V28.3335H22.4404V31.6668ZM22.4404 26.6668H19.1071V23.3335H22.4404V26.6668ZM22.4404 21.6668H19.1071V18.3335H22.4404V21.6668ZM27.4404 31.6668H24.1071V28.3335H27.4404V31.6668ZM27.4404 26.6668H24.1071V23.3335H27.4404V26.6668ZM27.4404 21.6668H24.1071V18.3335H27.4404V21.6668ZM32.4404 31.6668H29.1071V28.3335H32.4404V31.6668ZM32.4404 26.6668H29.1071V23.3335H32.4404V26.6668ZM32.4404 21.6668H29.1071V18.3335H32.4404V21.6668Z" fill="black"/>
</svg>
