<svg width="41" height="40" viewBox="0 0 41 40" fill="none" xmlns="http://www.w3.org/2000/svg">
<path d="M20.4397 9.16846C13.9963 9.16846 8.77301 14.3918 8.77301 20.8351C8.77301 27.2785 13.9963 32.5018 20.4397 32.5018C26.883 32.5018 32.1063 27.2785 32.1063 20.8351C32.1063 14.3918 26.883 9.16846 20.4397 9.16846ZM20.4397 30.0018C15.3763 30.0018 11.273 25.8985 11.273 20.8351C11.273 15.7718 15.3763 11.6685 20.4397 11.6685C25.503 11.6685 29.6063 15.7718 29.6063 20.8351C29.5963 25.8935 25.498 29.9918 20.4413 30.0018H20.4397Z" fill="black"/>
<path d="M7.1145 13.2318L11.6362 8.3335L13.4728 10.0285L8.95117 14.9268L7.1145 13.2318Z" fill="black"/>
<path d="M27.4158 10.0334L29.2525 8.33838L33.7742 13.2367L31.9375 14.9317L27.4158 10.0334Z" fill="black"/>
<path d="M21.273 19.4016V13.335H19.6063V19.4016C19.1047 19.695 18.773 20.2316 18.773 20.845C18.773 21.765 19.5197 22.5116 20.4397 22.5116C21.3597 22.5116 22.1063 21.765 22.1063 20.845C22.1063 20.2316 21.7747 19.695 21.2813 19.4066L21.273 19.4016Z" fill="black"/>
</svg>
