<svg width="502" height="415" viewBox="0 0 502 415" fill="none" xmlns="http://www.w3.org/2000/svg">
<rect x="7.98047" y="379.813" width="414.595" height="19.9805" fill="black"/>
<path d="M-4.50781 1.68213H-5.50781V2.68213V384.808V385.808H-4.50781H417.033H417.114C428.359 385.808 436.899 385.808 443.501 384.921C450.147 384.027 454.979 382.218 458.711 378.486C462.442 374.755 464.252 369.923 465.145 363.276C466.033 356.674 466.033 348.135 466.033 336.889V336.808V50.6821V50.6012C466.033 39.3557 466.033 30.8162 465.145 24.2144C464.252 17.5679 462.442 12.7359 458.711 9.00446C454.979 5.27297 450.147 3.46331 443.501 2.56973C436.899 1.68212 428.359 1.68212 417.113 1.68213H417.033H-4.50781Z" fill="#E2ECF5" stroke="black" stroke-width="2"/>
<path d="M-4.50781 393.799H-5.50781V394.799V412.281V413.281H-4.50781H491.257C496.637 413.281 500.999 408.92 500.999 403.54C500.999 398.16 496.637 393.799 491.257 393.799H-4.50781Z" fill="#E2ECF5" stroke="black" stroke-width="2"/>
<path d="M-12 19.665H-12.5V20.165V367.326V367.826H-12H426.048H426.089C431.711 367.826 435.981 367.826 439.282 367.382C442.605 366.935 445.021 366.03 446.887 364.164C448.753 362.299 449.658 359.883 450.104 356.559C450.548 353.259 450.548 348.989 450.548 343.366V343.326V44.165V44.1246C450.548 38.5018 450.548 34.2321 450.104 30.9312C449.658 27.6079 448.753 25.1919 446.887 23.3262C445.021 21.4605 442.605 20.5556 439.282 20.1088C435.981 19.665 431.711 19.665 426.088 19.665H426.048H-12Z" fill="#30353B" stroke="black"/>
</svg>
