<svg width="639" height="241" viewBox="0 0 639 241" fill="none" xmlns="http://www.w3.org/2000/svg">
<g filter="url(#filter0_i_667_12228)">
<path d="M529.331 33.5654C543.689 25.9205 590.234 -4.42864 633.967 3.82167C651.015 8.96656 686.619 39.0449 692.651 118.199C700.19 217.142 646.039 231.135 609.834 235.572C573.63 240.009 527.384 198.778 496.506 197.596C465.627 196.415 431.547 215.488 398.932 218.014C366.317 220.54 367.51 191.151 374.766 190.997C382.023 190.844 382.101 194.513 409.04 181.096C430.592 170.362 417.399 147.273 408.108 137.07C468.933 95.407 450.171 66.4405 428.246 59.5637C406.322 52.6869 398.716 36.3306 411.298 30.5588C423.88 24.787 452.906 24.1719 476.722 34.6791C500.539 45.1863 514.974 41.2102 529.331 33.5654Z" fill="#FF454E"/>
</g>
<path d="M529.331 33.5654C543.689 25.9205 590.234 -4.42864 633.967 3.82167C651.015 8.96656 686.619 39.0449 692.651 118.199C700.19 217.142 646.039 231.135 609.834 235.572C573.63 240.009 527.384 198.778 496.506 197.596C465.627 196.415 431.547 215.488 398.932 218.014C366.317 220.54 367.51 191.151 374.766 190.997C382.023 190.844 382.101 194.513 409.04 181.096C430.592 170.362 417.399 147.273 408.108 137.07C468.933 95.407 450.171 66.4405 428.246 59.5637C406.322 52.6869 398.716 36.3306 411.298 30.5588C423.88 24.787 452.906 24.1719 476.722 34.6791C500.539 45.1863 514.974 41.2102 529.331 33.5654Z" stroke="black"/>
<path d="M539.269 172.926C563.257 183.314 592.227 169.989 587.727 130.135C584.284 111.445 580.596 69.637 593.385 51.9339C609.371 29.8051 618.277 18.7214 596.348 19.1856C574.418 19.6499 560.183 38.1099 531.174 49.6192C502.165 61.1285 476.235 45.3347 459.673 40.2377C443.11 35.1408 408.504 41.321 421.411 46.4954C445.382 56.1048 460.172 63.8334 460.749 91.0592C461.103 107.793 437.991 138.753 432.739 149.76C427.487 160.766 445.839 164.009 469.403 154.431C492.968 144.853 515.282 162.539 539.269 172.926Z" fill="white" stroke="black"/>
<path fill-rule="evenodd" clip-rule="evenodd" d="M129.474 142.78L471.944 140.765L471.944 94.662L124.969 106.766C115.626 98.1224 99.9793 84.5264 97.217 85.6313C77.3491 94.6622 44.7879 95.9164 30.9908 95.4147C29.4857 93.4079 25.2713 88.9426 20.4548 87.1364C14.4343 84.8787 6.90863 90.8993 4.65092 98.425C2.39321 105.951 5.40349 112.724 15.9395 117.992C26.4755 123.26 118.289 149.6 122.052 149.6C124.593 149.6 127.671 145.666 129.474 142.78Z" fill="#FACB9B"/>
<path d="M471.944 140.765L471.947 141.265L472.444 141.262L472.444 140.765L471.944 140.765ZM129.474 142.78L129.471 142.28L129.196 142.282L129.05 142.515L129.474 142.78ZM471.944 94.662L472.444 94.662L472.444 94.1442L471.926 94.1623L471.944 94.662ZM124.969 106.766L124.63 107.133L124.781 107.273L124.987 107.266L124.969 106.766ZM97.217 85.6313L97.0313 85.1671L97.0206 85.1714L97.0101 85.1761L97.217 85.6313ZM30.9908 95.4147L30.5908 95.7147L30.7341 95.9057L30.9726 95.9144L30.9908 95.4147ZM20.4548 87.1364L20.6304 86.6683L20.6304 86.6683L20.4548 87.1364ZM4.65092 98.425L5.12984 98.5687L5.12984 98.5687L4.65092 98.425ZM15.9395 117.992L15.7159 118.439L15.7159 118.439L15.9395 117.992ZM122.052 149.6L122.052 150.1L122.052 150.1L122.052 149.6ZM471.941 140.265L129.471 142.28L129.477 143.28L471.947 141.265L471.941 140.265ZM471.444 94.662L471.444 140.765L472.444 140.765L472.444 94.662L471.444 94.662ZM124.987 107.266L471.961 95.1617L471.926 94.1623L124.952 106.267L124.987 107.266ZM125.309 106.399C120.633 102.074 114.376 96.5046 108.938 92.1527C106.22 89.9781 103.696 88.0979 101.67 86.8283C100.659 86.1946 99.7555 85.7023 99.0043 85.4032C98.6288 85.2536 98.2759 85.1461 97.9567 85.0973C97.6427 85.0494 97.3194 85.0519 97.0313 85.1671L97.4027 86.0956C97.46 86.0727 97.5826 86.0518 97.8058 86.0859C98.0238 86.1192 98.2995 86.1989 98.6344 86.3322C99.304 86.5989 100.149 87.0551 101.139 87.6757C103.116 88.9147 105.605 90.7666 108.313 92.9334C113.724 97.2642 119.962 102.815 124.63 107.133L125.309 106.399ZM97.0101 85.1761C87.1479 89.6589 74.1025 92.2231 61.7718 93.6008C49.4492 94.9777 37.8843 95.1651 31.009 94.9151L30.9726 95.9144C37.8944 96.1661 49.5087 95.9772 61.8829 94.5946C74.2491 93.2129 87.4182 90.6345 97.4239 86.0865L97.0101 85.1761ZM31.3908 95.1147C29.8608 93.0747 25.5759 88.5229 20.6304 86.6683L20.2793 87.6046C24.9666 89.3624 29.1105 93.741 30.5908 95.7147L31.3908 95.1147ZM20.6304 86.6683C17.405 85.4588 13.8399 86.4875 10.8439 88.7104C7.84185 90.9377 5.33208 94.4144 4.17201 98.2813L5.12984 98.5687C6.22748 94.9099 8.60938 91.6134 11.4397 89.5135C14.2761 87.4091 17.4841 86.5564 20.2793 87.6046L20.6304 86.6683ZM4.17201 98.2813C3.01138 102.15 3.1972 105.866 5.05814 109.294C6.91137 112.707 10.3944 115.778 15.7159 118.439L16.1631 117.545C10.9486 114.937 7.65847 111.988 5.93699 108.817C4.22322 105.66 4.03276 102.226 5.12984 98.5687L4.17201 98.2813ZM15.7159 118.439C18.3939 119.778 26.1543 122.425 36.2845 125.63C46.4371 128.841 59.0228 132.629 71.3951 136.251C83.7675 139.874 95.9291 143.331 105.234 145.884C109.886 147.16 113.826 148.211 116.722 148.942C118.169 149.308 119.359 149.595 120.248 149.791C120.693 149.889 121.065 149.965 121.36 150.017C121.643 150.066 121.886 150.1 122.052 150.1L122.052 149.1C121.983 149.1 121.819 149.082 121.533 149.032C121.258 148.983 120.901 148.911 120.463 148.814C119.589 148.622 118.41 148.338 116.967 147.973C114.08 147.244 110.148 146.195 105.498 144.92C96.2003 142.369 84.0444 138.913 71.6761 135.291C59.3076 131.67 46.7293 127.885 36.5861 124.676C26.4203 121.46 18.753 118.84 16.1631 117.545L15.7159 118.439ZM122.052 150.1C122.814 150.1 123.574 149.807 124.292 149.366C125.013 148.923 125.724 148.311 126.398 147.622C127.744 146.242 128.986 144.505 129.898 143.045L129.05 142.515C128.159 143.941 126.961 145.614 125.682 146.923C125.043 147.577 124.396 148.129 123.769 148.514C123.138 148.901 122.561 149.1 122.052 149.1L122.052 150.1Z" fill="black"/>
<rect x="17.1826" y="127.354" width="4.51542" height="13.5463" transform="rotate(-72.5762 17.1826 127.354)" fill="black"/>
<rect x="32.9797" y="132.312" width="4.51542" height="13.5463" transform="rotate(-72.5762 32.9797 132.312)" fill="black"/>
<rect x="48.7764" y="137.269" width="4.51542" height="13.5463" transform="rotate(-72.5762 48.7764 137.269)" fill="black"/>
<rect x="64.5735" y="142.227" width="4.51542" height="13.5463" transform="rotate(-72.5762 64.5735 142.227)" fill="black"/>
<rect x="80.3704" y="147.184" width="4.51542" height="13.5463" transform="rotate(-72.5762 80.3704 147.184)" fill="black"/>
<rect x="96.167" y="152.142" width="4.51542" height="13.5463" transform="rotate(-72.5762 96.167 152.142)" fill="black"/>
<rect x="22.6719" y="126.214" width="6.02056" height="4.51542" transform="rotate(-72.6942 22.6719 126.214)" fill="black"/>
<rect x="38.5166" y="131.7" width="6.02056" height="4.51542" transform="rotate(-72.6942 38.5166 131.7)" fill="black"/>
<rect x="53.5681" y="136.215" width="6.02057" height="4.51543" transform="rotate(-72.6942 53.5681 136.215)" fill="black"/>
<rect x="70.1248" y="140.73" width="6.02056" height="4.51542" transform="rotate(-72.6942 70.1248 140.73)" fill="black"/>
<rect x="85.176" y="145.246" width="6.02056" height="4.51543" transform="rotate(-72.6942 85.176 145.246)" fill="black"/>
<rect x="101.733" y="149.762" width="6.02056" height="4.51542" transform="rotate(-72.6942 101.733 149.762)" fill="black"/>
<path d="M648.552 33.1971C650.917 34.8448 651.722 38.4608 650.912 43.171C650.109 47.8482 647.731 53.4591 643.954 58.8805C640.178 64.3018 635.738 68.4767 631.629 70.8511C627.491 73.2424 623.821 73.741 621.456 72.0933C619.09 70.4455 618.286 66.8296 619.095 62.1194C619.899 57.4421 622.277 51.8312 626.053 46.4099C629.83 40.9886 634.269 36.8137 638.378 34.4392C642.516 32.048 646.187 31.5494 648.552 33.1971Z" fill="#988686" stroke="black" stroke-width="0.760556"/>
<line x1="138.981" y1="142.074" x2="138.981" y2="105.95" stroke="black" stroke-width="0.760556"/>
<line x1="172.094" y1="142.074" x2="172.094" y2="105.95" stroke="black" stroke-width="0.760556"/>
<line x1="193.166" y1="142.074" x2="193.166" y2="104.445" stroke="black" stroke-width="0.760556"/>
<line x1="215.743" y1="142.074" x2="215.743" y2="104.445" stroke="black" stroke-width="0.760556"/>
<line x1="238.32" y1="142.074" x2="238.32" y2="102.94" stroke="black" stroke-width="0.760556"/>
<line x1="257.887" y1="142.074" x2="257.887" y2="101.435" stroke="black" stroke-width="0.760556"/>
<line x1="292.505" y1="142.074" x2="292.505" y2="101.435" stroke="black" stroke-width="0.760556"/>
<line x1="310.567" y1="142.074" x2="310.567" y2="99.9298" stroke="black" stroke-width="0.760556"/>
<line x1="324.113" y1="142.074" x2="324.113" y2="99.9298" stroke="black" stroke-width="0.760556"/>
<line x1="339.165" y1="142.074" x2="339.165" y2="98.4246" stroke="black" stroke-width="0.760556"/>
<line x1="354.216" y1="142.074" x2="354.216" y2="98.4246" stroke="black" stroke-width="0.760556"/>
<line x1="379.804" y1="142.074" x2="379.804" y2="96.92" stroke="black" stroke-width="0.760556"/>
<line x1="390.339" y1="142.074" x2="390.339" y2="96.9195" stroke="black" stroke-width="0.760556"/>
<line x1="400.875" y1="140.569" x2="400.875" y2="96.9198" stroke="black" stroke-width="0.760556"/>
<line x1="412.917" y1="140.569" x2="412.917" y2="96.9198" stroke="black" stroke-width="0.760556"/>
<line x1="423.452" y1="140.568" x2="423.452" y2="96.9193" stroke="black" stroke-width="0.760556"/>
<line x1="430.978" y1="140.569" x2="430.978" y2="95.4146" stroke="black" stroke-width="0.760556"/>
<line x1="441.514" y1="140.569" x2="441.514" y2="95.4146" stroke="black" stroke-width="0.760556"/>
<line x1="449.04" y1="140.568" x2="449.04" y2="95.4141" stroke="black" stroke-width="0.760556"/>
<line x1="455.06" y1="140.569" x2="455.06" y2="95.4146" stroke="black" stroke-width="0.760556"/>
<line x1="462.586" y1="140.568" x2="462.586" y2="95.4141" stroke="black" stroke-width="0.760556"/>
<line x1="110.762" y1="138.683" x2="577.356" y2="137.178" stroke="#BFBBB6" stroke-width="0.760556"/>
<line x1="95.7095" y1="132.663" x2="577.355" y2="129.652" stroke="#BFBBB6" stroke-width="0.760556"/>
<line x1="80.656" y1="128.148" x2="577.353" y2="122.127" stroke="#BFBBB6" stroke-width="0.760556"/>
<line x1="64.0995" y1="122.127" x2="577.353" y2="116.106" stroke="#BFBBB6" stroke-width="0.760556"/>
<line x1="47.5409" y1="117.611" x2="577.351" y2="108.581" stroke="#BFBBB6" stroke-width="0.760556"/>
<line x1="29.4775" y1="111.591" x2="577.349" y2="99.5499" stroke="#BFBBB6" stroke-width="0.760556"/>
<rect x="604.97" y="144.944" width="32.6441" height="58.293" rx="1.52111" transform="rotate(178.787 604.97 144.944)" fill="#020202"/>
<ellipse cx="28.7333" cy="111.219" rx="3.76286" ry="3.76285" transform="rotate(-90 28.7333 111.219)" fill="#583E25"/>
<ellipse cx="46.7948" cy="117.239" rx="3.76285" ry="3.76285" transform="rotate(-90 46.7948 117.239)" fill="#583E25"/>
<ellipse cx="63.3515" cy="121.754" rx="3.76286" ry="3.76285" transform="rotate(-90 63.3515 121.754)" fill="#583E25"/>
<circle cx="79.9081" cy="126.27" r="3.76285" transform="rotate(-90 79.9081 126.27)" fill="#583E25"/>
<ellipse cx="96.4648" cy="130.785" rx="3.76285" ry="3.76285" transform="rotate(-90 96.4648 130.785)" fill="#583E25"/>
<ellipse cx="113.021" cy="135.301" rx="3.76285" ry="3.76286" transform="rotate(-90 113.021 135.301)" fill="#583E25"/>
<defs>
<filter id="filter0_i_667_12228" x="370.058" y="1.9126" width="323.803" height="234.493" filterUnits="userSpaceOnUse" color-interpolation-filters="sRGB">
<feFlood flood-opacity="0" result="BackgroundImageFix"/>
<feBlend mode="normal" in="SourceGraphic" in2="BackgroundImageFix" result="shape"/>
<feColorMatrix in="SourceAlpha" type="matrix" values="0 0 0 0 0 0 0 0 0 0 0 0 0 0 0 0 0 0 127 0" result="hardAlpha"/>
<feOffset dx="-4" dy="-6"/>
<feComposite in2="hardAlpha" operator="arithmetic" k2="-1" k3="1"/>
<feColorMatrix type="matrix" values="0 0 0 0 0.8196 0 0 0 0 0.25891 0 0 0 0 0.28604 0 0 0 1 0"/>
<feBlend mode="normal" in2="shape" result="effect1_innerShadow_667_12228"/>
</filter>
</defs>
</svg>
