<svg width="165" height="54" viewBox="0 0 165 54" fill="none" xmlns="http://www.w3.org/2000/svg">
<path d="M8.02977 28.7798C6.6431 28.7798 5.34512 28.6054 4.13581 28.2566C2.94264 27.9079 2.09612 27.5591 1.59628 27.2103C1.11256 26.8616 0.790077 26.6138 0.628837 26.4669C0.209612 26.0814 0 25.5491 0 24.8699C0 24.3376 0.0564341 23.8328 0.169302 23.3555C0.378915 22.4561 0.75783 22.0064 1.30605 22.0064C1.48341 22.0247 2.04775 22.2358 2.99907 22.6396C3.96651 23.0435 4.72434 23.2454 5.27256 23.2454C6.09488 23.2454 6.50605 22.8783 6.50605 22.144C6.50605 21.7035 6.3045 21.2996 5.9014 20.9325C5.49829 20.547 5.00651 20.1799 4.42605 19.8312C3.86171 19.4824 3.2893 19.0877 2.70884 18.6472C2.12837 18.1883 1.63659 17.5642 1.23349 16.7748C0.830388 15.9672 0.628837 15.031 0.628837 13.9664C0.628837 12.2042 1.38667 10.8275 2.90233 9.83622C4.41798 8.82663 6.37705 8.32184 8.77954 8.32184C11.182 8.32184 13.0847 8.60636 14.4874 9.1754C15.9064 9.72608 16.6158 10.497 16.6158 11.4883C16.6158 12.2042 16.4707 12.8375 16.1805 13.3881C15.8902 13.9205 15.5839 14.1866 15.2614 14.1866C15.1485 14.1866 14.7696 14.049 14.1247 13.7736C13.4958 13.4799 12.9234 13.3331 12.4074 13.3331C11.3916 13.3331 10.8837 13.7828 10.8837 14.6822C10.8837 15.1228 11.1256 15.5266 11.6093 15.8938C12.093 16.2609 12.6735 16.6188 13.3507 16.9676C14.044 17.298 14.7374 17.6743 15.4307 18.0965C16.124 18.5187 16.7126 19.0969 17.1963 19.8312C17.68 20.5654 17.9219 21.4557 17.9219 22.502C17.9219 23.5483 17.6236 24.5028 17.027 25.3655C16.4465 26.2283 15.6726 26.8983 14.7051 27.3755C12.7864 28.3117 10.5612 28.7798 8.02977 28.7798Z" fill="white"/>
<path d="M21.1046 18.2066C21.1046 17.9129 20.9272 17.7661 20.5725 17.7661C19.9437 17.7661 19.5728 17.5275 19.4599 17.0502C19.3954 16.8116 19.3632 16.4444 19.3632 15.9488C19.3632 15.4532 19.4196 15.1044 19.5325 14.9025C19.6615 14.6822 19.8953 14.5262 20.2339 14.4344C20.5886 14.3243 20.903 14.1499 21.1772 13.9113C21.4674 13.6543 22.0478 13.1036 22.9185 12.2592C23.8054 11.4148 24.4181 10.8642 24.7567 10.6072C25.1114 10.3502 25.5468 10.2217 26.0627 10.2217H27.272C27.8364 10.2217 28.2153 10.3043 28.4088 10.4695C28.6023 10.6164 28.699 10.855 28.699 11.1854V13.8011C28.699 14.1866 28.8441 14.3794 29.1344 14.3794H31.7223C32.1415 14.3794 32.4398 14.4803 32.6171 14.6822C32.8106 14.8842 32.9074 15.3522 32.9074 16.0865C32.9074 16.8024 32.8106 17.2613 32.6171 17.4632C32.4237 17.6651 32.1334 17.7661 31.7465 17.7661H29.2311C29.0054 17.7661 28.8603 17.8303 28.7958 17.9588C28.7313 18.0873 28.699 18.2709 28.699 18.5095V21.8136C28.7313 22.4377 28.9328 22.9609 29.3037 23.3831C29.6906 23.8053 30.2308 24.0164 30.9241 24.0164C31.2627 24.0164 31.682 23.9154 32.1818 23.7135C32.6816 23.4932 33.0203 23.3831 33.1976 23.3831C33.633 23.3831 33.8506 24.1173 33.8506 25.5858C33.8506 26.6505 33.6007 27.2929 33.1009 27.5132C32.5849 27.7151 31.8593 27.8803 30.9241 28.0088C29.9889 28.1373 29.0537 28.2016 28.1185 28.2016C27.1834 28.2016 26.2885 28.119 25.4339 27.9538C24.5954 27.7702 23.8296 27.4581 23.1362 27.0176C21.7818 26.1181 21.1046 24.4018 21.1046 21.8687V18.2066Z" fill="white"/>
<path d="M43.3832 15.4257L43.359 22.144C43.359 22.6764 43.4638 23.0802 43.6734 23.3555C43.883 23.6309 44.149 23.7685 44.4715 23.7685C44.8101 23.7685 45.1245 23.6309 45.4148 23.3555C45.7211 23.0618 45.9388 22.6672 46.0678 22.1716V20.492C46.0678 18.069 46.1162 16.4169 46.2129 15.5358C46.2613 15.2238 46.3983 14.9484 46.6241 14.7098C46.8498 14.4711 47.2449 14.3335 47.8092 14.2968C48.3897 14.2417 48.9621 14.2142 49.5264 14.2142C50.0908 14.2142 51.0501 14.2509 52.4045 14.3243C52.7915 14.3427 53.0979 14.4711 53.3236 14.7098C53.5494 14.9484 53.6783 15.2238 53.7106 15.5358C53.8235 16.729 53.8799 18.5646 53.8799 21.0427C53.8799 23.5024 53.8477 25.182 53.7832 26.0814C53.7187 26.9809 53.5977 27.5683 53.4204 27.8436C53.243 28.119 52.8802 28.2566 52.332 28.2566H47.6157C47.0675 28.2566 46.6966 28.119 46.5032 27.8436C46.3258 27.5683 46.2129 27.1002 46.1645 26.4394V26.4118C44.5038 27.862 42.8188 28.587 41.1097 28.587C39.4005 28.587 38.1025 28.1098 37.2157 27.1553C36.345 26.1824 35.8935 24.8148 35.8613 23.0527C35.8452 21.2905 35.8371 19.721 35.8371 18.3443C35.8371 16.9676 35.8452 16.0406 35.8613 15.5633C35.8774 15.0861 35.9822 14.7465 36.1757 14.5446C36.3853 14.3243 36.7804 14.2142 37.3608 14.2142L42.0045 14.1591C42.5205 14.1591 42.8752 14.2692 43.0687 14.4895C43.2783 14.6914 43.3832 15.0035 43.3832 15.4257Z" fill="white"/>
<path d="M64.726 18.4269C63.7747 18.4269 63.299 19.3264 63.299 21.1253C63.299 22.9058 63.7747 23.7961 64.726 23.7961C65.0969 23.7961 65.4274 23.6584 65.7176 23.3831C66.024 23.0894 66.1772 22.6855 66.1772 22.1716V20.0514C66.1772 19.5375 66.024 19.1428 65.7176 18.8675C65.4274 18.5738 65.0969 18.4269 64.726 18.4269ZM72.7074 28.174L70.1437 28.2291C69.2085 28.2291 68.5797 28.2107 68.2572 28.174C67.2575 28.1006 66.7576 27.4581 66.7576 26.2466C66.1611 27.0176 65.3871 27.6417 64.4358 28.119C63.5006 28.5962 62.638 28.8348 61.8479 28.8348C60.2355 28.8348 58.9052 28.2291 57.8572 27.0176C56.8252 25.8061 56.3093 23.9338 56.3093 21.4006C56.3093 18.2433 57.2525 16.0406 59.139 14.7924C60.1387 14.1132 61.3077 13.7736 62.646 13.7736C63.9843 13.7736 65.1211 14.1132 66.0563 14.7924C66.3626 15.031 66.5319 14.9576 66.5642 14.5721C66.5964 14.1683 66.6125 13.5809 66.6125 12.8099V10.5246C66.6125 10.1575 66.6206 9.79033 66.6367 9.42321C66.6528 9.03773 66.7496 8.72567 66.9269 8.48704C67.1043 8.23006 67.4671 8.10156 68.0153 8.10156H72.659C73.1911 8.10156 73.5459 8.24841 73.7232 8.54211C73.9167 8.83581 74.0215 9.28553 74.0377 9.89129C74.086 12.4979 74.1102 15.1595 74.1102 17.8762C74.1102 17.8762 74.0941 20.8774 74.0618 26.8799C74.0618 27.247 73.9087 27.5591 73.6023 27.8161C73.3121 28.0547 73.0138 28.174 72.7074 28.174Z" fill="white"/>
<path d="M92.19 21.3455C92.19 23.4014 92.6657 24.4294 93.617 24.4294C94.5683 24.4294 95.044 23.4014 95.044 21.3455C95.044 20.4094 94.9472 19.6935 94.7538 19.1979C94.5603 18.6839 94.1813 18.4269 93.617 18.4269C93.0527 18.4269 92.6737 18.6839 92.4803 19.1979C92.2868 19.6935 92.19 20.4094 92.19 21.3455ZM102.638 21.3455C102.638 26.3384 99.6313 28.8348 93.617 28.8348C87.6027 28.8348 84.5956 26.3384 84.5956 21.3455C84.5956 18.9776 85.3615 17.142 86.8933 15.8387C88.4251 14.5354 90.6663 13.8838 93.617 13.8838C96.5677 13.8838 98.8089 14.5354 100.341 15.8387C101.873 17.142 102.638 18.9776 102.638 21.3455Z" fill="white"/>
<path d="M38.6251 34.4794C39.2217 35.3237 39.907 36.4159 40.6809 37.7559C41.4549 39.0776 41.995 39.9587 42.3014 40.3992C42.6077 40.8398 42.8496 41.06 43.027 41.06C43.2205 41.06 43.3898 40.9407 43.5349 40.7021C43.68 40.4635 44.2121 39.5457 45.1312 37.9487C46.0502 36.3517 46.8081 35.1402 47.4047 34.3142C48.0012 33.4698 48.4769 33.0384 48.8316 33.02C49.1864 33.0017 49.6459 32.9925 50.2102 32.9925C50.7746 32.9925 51.4357 33.0109 52.1935 33.0476C52.9513 33.0843 53.4512 33.3137 53.693 33.7359C53.951 34.1398 54.1042 34.718 54.1526 35.4706C54.2493 37.398 54.2977 39.9587 54.2977 43.1527C54.2977 46.3283 54.2251 48.8339 54.08 50.6695C54.0478 51.11 53.9026 51.5047 53.6447 51.8535C53.3867 52.2022 53.0319 52.3766 52.5805 52.3766C51.5969 52.395 50.5005 52.4042 49.2912 52.4042C48.098 52.4042 47.1467 52.3766 46.4372 52.3216C46.1792 52.3032 45.9454 52.1931 45.7358 51.9911C45.5423 51.7709 45.4375 51.4864 45.4214 51.1376L45.2763 46.5944C45.2602 46.1539 45.1715 45.9061 45.0102 45.851C44.8651 45.7959 44.7281 45.9153 44.5991 46.209C43.7445 47.9344 42.6803 49.8618 41.4065 51.9911C41.1002 52.5235 40.6971 52.7896 40.1972 52.7896C39.6974 52.7896 39.2862 52.5235 38.9637 51.9911C38.3994 51.0733 37.44 49.1276 36.0856 46.1539C36.005 45.9703 35.9082 45.8602 35.7953 45.8235C35.6986 45.7868 35.6099 45.8327 35.5293 45.9611C35.4487 46.0896 35.4084 46.3007 35.4084 46.5944L35.2874 51.1376C35.2713 51.4864 35.1343 51.7709 34.8763 51.9911C34.6183 52.1931 34.32 52.3032 33.9814 52.3216H31.587C31.1516 52.3032 30.7969 52.1288 30.5228 51.7984C30.2648 51.468 30.1116 51.0917 30.0633 50.6695C29.9343 49.0358 29.8698 46.5027 29.8698 43.07C29.8698 39.6191 29.9101 37.0859 29.9907 35.4706C30.0391 34.6996 30.1922 34.1031 30.4502 33.6809C30.7082 33.2587 31.1678 33.0476 31.8288 33.0476C35.2149 33.0476 37.045 33.0751 37.3191 33.1302C37.5932 33.1853 38.0285 33.635 38.6251 34.4794Z" fill="white"/>
<path d="M65.7175 37.8661C70.9739 37.8661 73.6263 39.8118 73.6747 43.7033C73.7069 45.3554 73.723 46.8698 73.723 48.2465C73.723 49.6232 73.715 50.5502 73.6989 51.0274C73.6827 51.5047 73.5699 51.8535 73.3602 52.0737C73.1668 52.2757 72.7798 52.3766 72.1993 52.3766H67.0719C66.5559 52.3766 66.2012 52.2757 66.0077 52.0737C65.8142 51.8535 65.7094 51.5322 65.6933 51.11C65.6933 51.0917 65.6852 51.0642 65.6691 51.0274C65.6691 50.9724 65.6691 50.9265 65.6691 50.8898C64.6049 52.138 63.1537 52.7621 61.3156 52.7621C60.0418 52.7621 58.9534 52.4042 58.0505 51.6883C57.1637 50.954 56.7202 49.9536 56.7202 48.687C56.7202 47.4021 57.0347 46.3833 57.6635 45.6307C58.3085 44.8598 59.0663 44.3366 59.937 44.0613C60.8238 43.7859 61.7671 43.6483 62.7668 43.6483C63.7826 43.6483 64.7742 43.7584 65.7416 43.9787V43.8685C65.7416 42.9507 65.5804 42.2899 65.2579 41.8861C64.9516 41.4822 64.4437 41.2803 63.7342 41.2803C63.0409 41.2803 62.4604 41.3537 61.9928 41.5006C61.5252 41.6291 61.1705 41.7668 60.9286 41.9136C60.2675 42.3542 59.808 42.5744 59.55 42.5744C59.292 42.5744 59.0582 42.4368 58.8486 42.1614C58.6551 41.8861 58.5584 41.4639 58.5584 40.8948C58.5584 40.3074 58.6471 39.9036 58.8244 39.6833C59.0179 39.4631 59.3162 39.2428 59.7193 39.0225C61.1221 38.2516 63.1215 37.8661 65.7175 37.8661ZM64.5807 49.1276C65.2902 49.1276 65.653 48.9716 65.6691 48.6595C65.7013 48.0537 65.7175 47.2553 65.7175 46.264C65.7175 45.8785 65.4595 45.6858 64.9435 45.6858C64.4275 45.6858 64.0083 45.8326 63.6858 46.1263C63.3633 46.4017 63.2021 46.8147 63.2021 47.3654C63.2021 47.9161 63.3311 48.3474 63.5891 48.6595C63.8632 48.9716 64.1937 49.1276 64.5807 49.1276Z" fill="white"/>
<path d="M92.663 48.7146C92.663 48.2006 92.4695 47.7968 92.0825 47.5031C91.7117 47.2094 91.2521 46.9891 90.7039 46.8422C90.1718 46.677 89.6317 46.4935 89.0834 46.2916C88.5352 46.0713 88.0676 45.7042 87.6807 45.1902C87.3098 44.6579 87.1244 43.9603 87.1244 43.0976C87.1244 39.6833 89.4543 37.9762 94.1141 37.9762C96.1135 37.9762 97.7179 38.3617 98.9272 39.1327C99.3141 39.3713 99.5882 39.6007 99.7495 39.821C99.9107 40.0229 99.9914 40.39 99.9914 40.9224C99.9914 41.4547 99.8946 41.8585 99.7011 42.1339C99.5238 42.3909 99.3383 42.5194 99.1448 42.5194C98.9675 42.5194 98.5644 42.3174 97.9355 41.9136C97.3228 41.4914 96.6859 41.2711 96.0248 41.2528C95.4928 41.2528 95.2267 41.5557 95.2267 42.1614C95.2267 42.5653 95.4121 42.8865 95.783 43.1251C96.1538 43.3637 96.6053 43.5748 97.1374 43.7584C97.6695 43.9236 98.2016 44.1347 98.7337 44.3917C99.2658 44.6303 99.7172 45.0433 100.088 45.6307C100.459 46.1998 100.644 46.9248 100.644 47.8059C100.644 51.2202 98.3145 52.9273 93.6546 52.9273C91.3811 52.9273 89.5268 52.551 88.0918 51.7984C87.6565 51.5965 87.342 51.3946 87.1486 51.1926C86.9551 50.9724 86.8583 50.5869 86.8583 50.0362C86.8583 49.4672 86.9551 49.0633 87.1486 48.8247C87.3582 48.5861 87.5275 48.4668 87.6565 48.4668C87.8016 48.4668 88.2692 48.6687 89.0593 49.0725C89.8493 49.4763 90.6475 49.6783 91.4537 49.6783C92.2599 49.6783 92.663 49.357 92.663 48.7146Z" fill="white"/>
<path d="M110.183 45.438C110.183 47.4939 110.659 48.5218 111.61 48.5218C112.561 48.5218 113.037 47.4939 113.037 45.438C113.037 44.5018 112.94 43.7859 112.747 43.2903C112.553 42.7764 112.174 42.5194 111.61 42.5194C111.046 42.5194 110.667 42.7764 110.473 43.2903C110.28 43.7859 110.183 44.5018 110.183 45.438ZM120.632 45.438C120.632 50.4309 117.624 52.9273 111.61 52.9273C105.596 52.9273 102.589 50.4309 102.589 45.438C102.589 43.07 103.355 41.2344 104.886 39.9311C106.418 38.6279 108.659 37.9762 111.61 37.9762C114.561 37.9762 116.802 38.6279 118.334 39.9311C119.866 41.2344 120.632 43.07 120.632 45.438Z" fill="white"/>
<path d="M133.551 51.1376L133.575 44.4192C133.575 43.8685 133.454 43.4555 133.212 43.1802C132.971 42.9048 132.664 42.7672 132.293 42.7672C131.939 42.7672 131.608 42.914 131.302 43.2077C131.011 43.4831 130.866 43.8777 130.866 44.3917V46.0713C130.866 48.4943 130.818 50.1463 130.721 51.0274C130.673 51.3395 130.536 51.6148 130.31 51.8535C130.084 52.0921 129.681 52.2389 129.101 52.294C128.536 52.3307 127.972 52.3491 127.408 52.3491C126.843 52.3491 125.884 52.3124 124.53 52.239C124.143 52.2206 123.836 52.0921 123.611 51.8535C123.385 51.6148 123.256 51.3395 123.224 51.0274C123.111 49.8343 123.054 48.0079 123.054 45.5481C123.054 43.0884 123.087 41.4088 123.151 40.5094C123.215 39.5916 123.336 38.995 123.514 38.7196C123.691 38.4443 124.054 38.3066 124.602 38.3066H129.318C129.867 38.3066 130.229 38.4443 130.407 38.7196C130.6 38.995 130.721 39.4631 130.77 40.1239V40.1514C132.011 38.6829 133.519 37.9487 135.292 37.9487C137.082 37.9487 138.485 38.4443 139.501 39.4355C140.517 40.4268 141.033 41.7943 141.049 43.5381C141.081 45.282 141.097 46.8422 141.097 48.219C141.097 49.5957 141.089 50.5226 141.073 50.9999C141.057 51.4772 140.944 51.8259 140.734 52.0462C140.541 52.2481 140.154 52.3491 139.573 52.3491L134.93 52.4042C134.414 52.4042 134.051 52.3032 133.841 52.1013C133.648 51.881 133.551 51.5598 133.551 51.1376Z" fill="white"/>
<path fill-rule="evenodd" clip-rule="evenodd" d="M81.6686 22.116C81.6614 21.4317 81.1047 20.8809 80.4204 20.8809C79.7361 20.8809 79.1793 21.4317 79.1721 22.116L78.9109 46.7826C78.8987 47.9287 78.0839 48.9088 76.9594 49.1301L76.7871 49.164C75.7588 49.3663 75.0075 50.2535 74.9773 51.3011C74.9577 51.9823 75.5046 52.5452 76.1861 52.5452H84.6545C85.336 52.5452 85.8829 51.9823 85.8633 51.3011C85.8331 50.2535 85.0818 49.3663 84.0535 49.164L83.8814 49.1301C82.7568 48.9088 81.942 47.9287 81.9299 46.7826L81.6686 22.116Z" fill="white"/>
<path fill-rule="evenodd" clip-rule="evenodd" d="M77.3953 10.6019C77.3953 8.93217 78.7488 7.57861 80.4185 7.57861C82.0882 7.57861 83.4418 8.93217 83.4418 10.6019C83.4418 10.6556 83.3982 10.6992 83.3444 10.6992H81.8158C81.6004 10.6992 81.4257 10.8739 81.4257 11.0893C81.4257 11.3047 81.6004 11.4794 81.8158 11.4794H83.0518C83.2672 11.4794 83.4418 11.6539 83.4418 11.8693C83.4418 12.0847 83.2672 12.2593 83.0518 12.2593H81.8158C81.6004 12.2593 81.4257 12.4339 81.4257 12.6493C81.4257 12.8648 81.6004 13.0394 81.8158 13.0394H83.0517C83.2671 13.0394 83.4418 13.2141 83.4418 13.4295C83.4418 13.645 83.2671 13.8196 83.0517 13.8196H81.8158C81.6004 13.8196 81.4257 13.9942 81.4257 14.2097C81.4257 14.4251 81.6004 14.5997 81.8158 14.5997H82.4337C82.8108 14.5997 82.9993 14.5997 83.1396 14.6809C83.2314 14.7339 83.3076 14.8101 83.3607 14.9019C83.4418 15.0423 83.4418 15.2308 83.4418 15.6078V16.2574C83.4418 17.9271 82.0882 19.2807 80.4185 19.2807C78.7488 19.2807 77.3953 17.9271 77.3953 16.2574V15.6076C77.3953 15.2308 77.3953 15.0423 77.4763 14.902C77.5294 14.8101 77.6057 14.7339 77.6975 14.6808C77.8378 14.5997 78.0263 14.5997 78.4031 14.5997H79.0209C79.2364 14.5997 79.411 14.4251 79.411 14.2097C79.411 13.9942 79.2364 13.8196 79.0209 13.8196H77.7854C77.5699 13.8196 77.3953 13.645 77.3953 13.4295C77.3953 13.2141 77.5699 13.0394 77.7854 13.0394H79.0209C79.2364 13.0394 79.411 12.8648 79.411 12.6493C79.411 12.4339 79.2364 12.2593 79.0209 12.2593H77.7852C77.5699 12.2593 77.3953 12.0847 77.3953 11.8693C77.3953 11.6539 77.5699 11.4794 77.7852 11.4794H79.0209C79.2364 11.4794 79.411 11.3047 79.411 11.0893C79.411 10.8739 79.2364 10.6992 79.0209 10.6992H77.4926C77.4388 10.6992 77.3953 10.6556 77.3953 10.6019Z" fill="white"/>
<path d="M108.973 9.61655C108.904 10.391 109.212 11.0568 109.714 11.7266C110.201 12.3748 110.936 13.1096 111.853 14.0269L111.888 14.0612L129.61 31.784L129.642 31.8153C130.421 32.5949 131.05 33.2233 131.61 33.6511C132.192 34.0953 132.772 34.3797 133.458 34.3797C134.145 34.3797 134.724 34.0953 135.306 33.6511C135.867 33.2233 136.495 32.5949 137.275 31.8152L137.306 31.784L139.187 29.9032L139.217 29.8728C139.961 29.1294 140.561 28.5291 140.973 27.9922C141.401 27.4341 141.68 26.8784 141.697 26.2178C141.713 25.5573 141.464 24.9881 141.065 24.4088C140.681 23.8515 140.112 23.2214 139.408 22.4409L139.379 22.409L123.03 4.29543L123.002 4.26501C122.345 3.53651 121.813 2.94702 121.329 2.53175C120.826 2.09956 120.319 1.80395 119.698 1.73316C119.078 1.66236 118.516 1.83606 117.929 2.14388C117.365 2.43964 116.713 2.89416 115.909 3.45587L115.875 3.47932L112.621 5.75095L112.581 5.77871C111.517 6.52125 110.665 7.11603 110.072 7.66903C109.46 8.24037 109.041 8.84211 108.973 9.61655Z" fill="#89F0BE" stroke="black" stroke-width="1.2093"/>
<path d="M133.725 34.5255L133.701 33.9213L133.725 34.5255C134.374 34.5 134.921 34.2195 135.472 33.7937C136.003 33.383 136.599 32.7868 137.339 32.0473L137.369 32.0177L154.633 14.7532L154.669 14.7171C155.697 13.6892 156.516 12.8699 157.049 12.1545C157.598 11.4188 157.923 10.6889 157.798 9.85426C157.673 9.01958 157.148 8.41732 156.408 7.87462C155.689 7.34685 154.665 6.8037 153.381 6.12231L153.336 6.09835L149.781 4.21158L149.744 4.19235C148.876 3.73159 148.174 3.35876 147.577 3.13333C146.956 2.89871 146.377 2.79434 145.769 2.94052C145.161 3.0867 144.692 3.44277 144.246 3.9341C143.816 4.4062 143.36 5.05758 142.796 5.86261L142.773 5.8962L129.248 25.2024L129.227 25.2331C128.717 25.9608 128.304 26.5506 128.028 27.063C127.741 27.5962 127.569 28.1058 127.599 28.6742C127.602 28.7445 127.609 28.8147 127.617 28.8845C127.686 29.4494 127.944 29.9214 128.319 30.3968C128.68 30.8537 129.189 31.3629 129.817 31.9911L129.844 32.0177L129.873 32.0472C130.613 32.7868 131.209 33.383 131.74 33.7937C132.291 34.2195 132.838 34.5 133.487 34.5255C133.566 34.5286 133.646 34.5286 133.725 34.5255Z" fill="#74A4FF" stroke="black" stroke-width="1.2093"/>
<rect x="143.907" y="2.20931" width="19.9535" height="50.7907" rx="3.02326" fill="#C4A0FF" stroke="black" stroke-width="1.2093"/>
<rect x="105.814" y="0.927575" width="15.7209" height="33.8605" rx="3.02326" fill="#FFC32A" stroke="black" stroke-width="1.2093"/>
</svg>
