<svg width="204" height="68" viewBox="0 0 204 68" fill="none" xmlns="http://www.w3.org/2000/svg">
<path d="M10.7337 36.1906C9.02818 36.1906 7.43171 35.976 5.94431 35.5467C4.47675 35.1175 3.43557 34.6882 2.82078 34.259C2.22583 33.8297 1.82919 33.5247 1.63087 33.344C1.11524 32.8695 0.857422 32.2144 0.857422 31.3785C0.857422 30.7233 0.926834 30.102 1.06566 29.5146C1.32347 28.4076 1.78952 27.8541 2.46381 27.8541C2.68196 27.8767 3.37608 28.1365 4.54616 28.6335C5.73608 29.1305 6.66818 29.379 7.34246 29.379C8.35389 29.379 8.85961 28.9272 8.85961 28.0235C8.85961 27.4813 8.61171 26.9843 8.11591 26.5324C7.62011 26.058 7.01524 25.6061 6.30129 25.1769C5.60717 24.7476 4.90314 24.2619 4.18919 23.7197C3.47524 23.1549 2.87036 22.3868 2.37456 21.4153C1.87877 20.4212 1.63087 19.269 1.63087 17.9587C1.63087 15.7898 2.56297 14.0954 4.42717 12.8754C6.29137 11.6329 8.70095 11.0116 11.6559 11.0116C14.6109 11.0116 16.951 11.3618 18.6764 12.0621C20.4216 12.7399 21.2942 13.6888 21.2942 14.9087C21.2942 15.7898 21.1157 16.5693 20.7588 17.247C20.4018 17.9022 20.025 18.2298 19.6283 18.2298C19.4895 18.2298 19.0235 18.0603 18.2302 17.7215C17.4567 17.36 16.7527 17.1793 16.1181 17.1793C14.8687 17.1793 14.244 17.7328 14.244 18.8398C14.244 19.382 14.5415 19.879 15.1364 20.3309C15.7314 20.7827 16.4453 21.2233 17.2783 21.6525C18.131 22.0592 18.9838 22.5223 19.8366 23.0419C20.6894 23.5616 21.4132 24.2732 22.0082 25.1769C22.6031 26.0806 22.9006 27.1763 22.9006 28.4641C22.9006 29.7518 22.5337 30.9266 21.7999 31.9884C21.086 33.0503 20.1341 33.8749 18.9441 34.4623C16.5841 35.6145 13.8473 36.1906 10.7337 36.1906Z" fill="black"/>
<path d="M26.8153 23.1775C26.8153 22.816 26.5971 22.6353 26.1608 22.6353C25.3874 22.6353 24.9312 22.3416 24.7924 21.7542C24.7131 21.4605 24.6734 21.0086 24.6734 20.3986C24.6734 19.7887 24.7428 19.3594 24.8816 19.1109C25.0403 18.8398 25.3279 18.6477 25.7443 18.5348C26.1806 18.3992 26.5674 18.1846 26.9045 17.8909C27.2615 17.5746 27.9754 16.8969 29.0463 15.8576C30.1371 14.8184 30.8907 14.1406 31.3072 13.8243C31.7435 13.508 32.279 13.3499 32.9136 13.3499H34.401C35.0951 13.3499 35.5611 13.4515 35.7991 13.6549C36.0371 13.8356 36.1561 14.1293 36.1561 14.536V17.7554C36.1561 18.2298 36.3346 18.467 36.6916 18.467H39.8746C40.3902 18.467 40.7571 18.5913 40.9753 18.8398C41.2132 19.0883 41.3322 19.6644 41.3322 20.5681C41.3322 21.4492 41.2132 22.014 40.9753 22.2625C40.7373 22.511 40.3803 22.6353 39.9043 22.6353H36.8105C36.5329 22.6353 36.3544 22.7143 36.2751 22.8725C36.1958 23.0306 36.1561 23.2566 36.1561 23.5503V27.6168C36.1958 28.385 36.4437 29.0289 36.8998 29.5485C37.3758 30.0681 38.0401 30.3279 38.8929 30.3279C39.3094 30.3279 39.825 30.2037 40.4398 29.9551C41.0546 29.684 41.4711 29.5485 41.6892 29.5485C42.2247 29.5485 42.4924 30.4522 42.4924 32.2595C42.4924 33.5699 42.185 34.3606 41.5702 34.6317C40.9356 34.8802 40.0432 35.0836 38.8929 35.2417C37.7426 35.3999 36.5924 35.4789 35.4421 35.4789C34.2919 35.4789 33.1912 35.3773 32.1401 35.1739C31.1089 34.948 30.1668 34.564 29.3141 34.0217C27.6482 32.9147 26.8153 30.8024 26.8153 27.6846V23.1775Z" fill="black"/>
<path d="M54.217 19.7548L54.1873 28.0235C54.1873 28.6787 54.3162 29.1757 54.574 29.5146C54.8318 29.8535 55.159 30.0229 55.5557 30.0229C55.9721 30.0229 56.3589 29.8535 56.7158 29.5146C57.0926 29.1531 57.3604 28.6674 57.519 28.0574V25.9902C57.519 23.008 57.5785 20.9747 57.6975 19.8903C57.757 19.5063 57.9256 19.1674 58.2032 18.8737C58.4809 18.58 58.9668 18.4105 59.6609 18.3653C60.3748 18.2976 61.0789 18.2637 61.773 18.2637C62.4671 18.2637 63.6471 18.3089 65.313 18.3992C65.7889 18.4218 66.1658 18.58 66.4434 18.8737C66.7211 19.1674 66.8797 19.5063 66.9194 19.8903C67.0582 21.3588 67.1276 23.618 67.1276 26.668C67.1276 29.6953 67.0879 31.7625 67.0086 32.8695C66.9293 33.9766 66.7805 34.6995 66.5624 35.0384C66.3442 35.3773 65.898 35.5467 65.2237 35.5467H59.4229C58.7486 35.5467 58.2925 35.3773 58.0545 35.0384C57.8363 34.6995 57.6975 34.1234 57.638 33.3101V33.2762C55.5953 35.061 53.5229 35.9534 51.4207 35.9534C49.3185 35.9534 47.7221 35.366 46.6313 34.1912C45.5604 32.9938 45.0051 31.3107 44.9654 29.1418C44.9456 26.973 44.9357 25.0413 44.9357 23.3469C44.9357 21.6525 44.9456 20.5116 44.9654 19.9242C44.9853 19.3368 45.1142 18.9189 45.3521 18.6703C45.61 18.3992 46.0958 18.2637 46.8098 18.2637L52.5214 18.1959C53.156 18.1959 53.5923 18.3315 53.8303 18.6026C54.0881 18.8511 54.217 19.2351 54.217 19.7548Z" fill="black"/>
<path d="M80.4679 23.4486C79.2978 23.4486 78.7128 24.5556 78.7128 26.7696C78.7128 28.9611 79.2978 30.0568 80.4679 30.0568C80.924 30.0568 81.3306 29.8874 81.6876 29.5485C82.0644 29.187 82.2528 28.69 82.2528 28.0574V25.448C82.2528 24.8154 82.0644 24.3297 81.6876 23.9908C81.3306 23.6293 80.924 23.4486 80.4679 23.4486ZM90.2847 35.445L87.1314 35.5128C85.9812 35.5128 85.2077 35.4902 84.8111 35.445C83.5815 35.3547 82.9667 34.564 82.9667 33.0729C82.233 34.0217 81.281 34.7899 80.1109 35.3773C78.9607 35.9647 77.8997 36.2584 76.9279 36.2584C74.9447 36.2584 73.3086 35.5128 72.0195 34.0217C70.7503 32.5307 70.1156 30.2262 70.1156 27.1085C70.1156 23.2227 71.2758 20.5116 73.5961 18.9753C74.8257 18.1394 76.2635 17.7215 77.9096 17.7215C79.5556 17.7215 80.9538 18.1394 82.104 18.9753C82.4809 19.269 82.6891 19.1787 82.7288 18.7042C82.7684 18.2072 82.7883 17.4843 82.7883 16.5354V13.7226C82.7883 13.2708 82.7982 12.819 82.818 12.3671C82.8378 11.8927 82.9568 11.5086 83.175 11.2149C83.3931 10.8986 83.8393 10.7405 84.5136 10.7405H90.2252C90.8797 10.7405 91.316 10.9212 91.5341 11.2827C91.7721 11.6442 91.901 12.1977 91.9209 12.9432C91.9803 16.1513 92.0101 19.4272 92.0101 22.7708C92.0101 22.7708 91.9903 26.4646 91.9506 33.8523C91.9506 34.3041 91.7622 34.6882 91.3854 35.0045C91.0284 35.2982 90.6615 35.445 90.2847 35.445Z" fill="black"/>
<path d="M114.248 27.0408C114.248 29.5711 114.833 30.8362 116.003 30.8362C117.173 30.8362 117.758 29.5711 117.758 27.0408C117.758 25.8885 117.639 25.0075 117.401 24.3975C117.163 23.7649 116.697 23.4486 116.003 23.4486C115.309 23.4486 114.843 23.7649 114.605 24.3975C114.367 25.0075 114.248 25.8885 114.248 27.0408ZM127.099 27.0408C127.099 33.1858 123.4 36.2584 116.003 36.2584C108.605 36.2584 104.907 33.1858 104.907 27.0408C104.907 24.1264 105.849 21.8671 107.733 20.2631C109.617 18.659 112.373 17.857 116.003 17.857C119.632 17.857 122.389 18.659 124.273 20.2631C126.157 21.8671 127.099 24.1264 127.099 27.0408Z" fill="black"/>
<path d="M48.3648 43.2055C49.0986 44.2447 49.9415 45.5889 50.8934 47.2382C51.8453 48.8648 52.5097 49.9492 52.8865 50.4914C53.2633 51.0337 53.5608 51.3048 53.7789 51.3048C54.0169 51.3048 54.2252 51.1579 54.4036 50.8642C54.5821 50.5705 55.2366 49.4409 56.367 47.4754C57.4974 45.5099 58.4295 44.0188 59.1633 43.0021C59.8971 41.9629 60.4821 41.432 60.9184 41.4094C61.3547 41.3868 61.9199 41.3755 62.6141 41.3755C63.3082 41.3755 64.1213 41.3981 65.0534 41.4433C65.9855 41.4885 66.6003 41.7709 66.8978 42.2905C67.2151 42.7875 67.4035 43.4992 67.463 44.4254C67.582 46.7976 67.6415 49.9492 67.6415 53.8803C67.6415 57.7887 67.5522 60.8726 67.3737 63.1318C67.3341 63.674 67.1556 64.1597 66.8383 64.589C66.521 65.0182 66.0846 65.2329 65.5294 65.2329C64.3196 65.2555 62.971 65.2668 61.4836 65.2668C60.0161 65.2668 58.846 65.2329 57.9734 65.1651C57.6561 65.1425 57.3685 65.0069 57.1107 64.7584C56.8727 64.4873 56.7438 64.1371 56.724 63.7079L56.5455 58.1163C56.5257 57.5741 56.4166 57.2691 56.2183 57.2013C56.0398 57.1336 55.8712 57.2804 55.7125 57.6419C54.6615 59.7655 53.3525 62.1377 51.7858 64.7584C51.409 65.4136 50.9132 65.7412 50.2984 65.7412C49.6836 65.7412 49.1779 65.4136 48.7813 64.7584C48.0872 63.6288 46.9072 61.234 45.2413 57.5741C45.1421 57.3482 45.0231 57.2126 44.8843 57.1674C44.7653 57.1223 44.6562 57.1787 44.5571 57.3369C44.4579 57.495 44.4083 57.7548 44.4083 58.1163L44.2596 63.7079C44.2398 64.1371 44.0712 64.4873 43.7539 64.7584C43.4366 65.0069 43.0697 65.1425 42.6532 65.1651H39.7082C39.1727 65.1425 38.7364 64.9279 38.3993 64.5212C38.082 64.1145 37.8936 63.6514 37.8341 63.1318C37.6754 61.1211 37.5961 58.0034 37.5961 53.7786C37.5961 49.5313 37.6457 46.4136 37.7448 44.4254C37.8043 43.4766 37.9927 42.7423 38.31 42.2227C38.6273 41.7031 39.1925 41.4433 40.0057 41.4433C44.1704 41.4433 46.4213 41.4772 46.7584 41.5449C47.0956 41.6127 47.631 42.1662 48.3648 43.2055Z" fill="black"/>
<path d="M81.6873 47.3737C88.1525 47.3737 91.4149 49.7685 91.4744 54.558C91.5141 56.5913 91.5339 58.4552 91.5339 60.1496C91.5339 61.844 91.524 62.9849 91.5042 63.5723C91.4843 64.1597 91.3455 64.589 91.0877 64.8601C90.8497 65.1086 90.3737 65.2329 89.6598 65.2329H83.3532C82.7186 65.2329 82.2823 65.1086 82.0443 64.8601C81.8063 64.589 81.6774 64.1936 81.6576 63.674C81.6576 63.6514 81.6477 63.6175 81.6278 63.5723C81.6278 63.5046 81.6278 63.4481 81.6278 63.4029C80.3189 64.9392 78.5341 65.7073 76.2732 65.7073C74.7065 65.7073 73.3678 65.2667 72.2573 64.3857C71.1665 63.482 70.6211 62.2507 70.6211 60.6918C70.6211 59.1104 71.0079 57.8565 71.7813 56.9302C72.5746 55.9814 73.5067 55.3375 74.5776 54.9986C75.6684 54.6597 76.8285 54.4903 78.0581 54.4903C79.3075 54.4903 80.5272 54.6258 81.7171 54.8969V54.7614C81.7171 53.6318 81.5188 52.8184 81.1221 52.3214C80.7453 51.8244 80.1206 51.5759 79.248 51.5759C78.3952 51.5759 77.6813 51.6662 77.1062 51.847C76.531 52.0051 76.0947 52.1746 75.7973 52.3553C74.9842 52.8975 74.4189 53.1686 74.1016 53.1686C73.7843 53.1686 73.4967 52.9992 73.2389 52.6603C73.001 52.3214 72.882 51.8018 72.882 51.1014C72.882 50.3785 72.991 49.8815 73.2092 49.6104C73.4472 49.3392 73.8141 49.0681 74.3099 48.797C76.0352 47.8482 78.4944 47.3737 81.6873 47.3737ZM80.2892 61.234C81.1618 61.234 81.608 61.042 81.6278 60.6579C81.6675 59.9124 81.6873 58.9296 81.6873 57.7097C81.6873 57.2352 81.37 56.998 80.7354 56.998C80.1008 56.998 79.5852 57.1787 79.1885 57.5402C78.7919 57.8791 78.5936 58.3874 78.5936 59.0652C78.5936 59.743 78.7522 60.2739 79.0695 60.6579C79.4067 61.042 79.8132 61.234 80.2892 61.234Z" fill="black"/>
<path d="M114.829 60.7257C114.829 60.0931 114.591 59.5961 114.115 59.2346C113.659 58.8732 113.094 58.6021 112.42 58.4213C111.765 58.218 111.101 57.9921 110.427 57.7435C109.752 57.4724 109.177 57.0206 108.701 56.388C108.245 55.7328 108.017 54.8743 108.017 53.8125C108.017 49.6104 110.883 47.5093 116.614 47.5093C119.073 47.5093 121.047 47.9837 122.534 48.9326C123.01 49.2263 123.347 49.5087 123.545 49.7798C123.744 50.0283 123.843 50.4802 123.843 51.1353C123.843 51.7905 123.724 52.2875 123.486 52.6264C123.268 52.9427 123.04 53.1008 122.802 53.1008C122.584 53.1008 122.088 52.8523 121.314 52.3553C120.561 51.8357 119.777 51.5646 118.964 51.542C118.31 51.542 117.983 51.9148 117.983 52.6603C117.983 53.1573 118.211 53.5527 118.667 53.8464C119.123 54.1401 119.678 54.3999 120.333 54.6258C120.987 54.8292 121.642 55.089 122.296 55.4053C122.95 55.699 123.506 56.2073 123.962 56.9302C124.418 57.6306 124.646 58.523 124.646 59.6074C124.646 63.8096 121.78 65.9106 116.049 65.9106C113.253 65.9106 110.972 65.4475 109.207 64.5212C108.671 64.2727 108.285 64.0242 108.047 63.7757C107.809 63.5046 107.69 63.0301 107.69 62.3524C107.69 61.652 107.809 61.155 108.047 60.8613C108.305 60.5676 108.513 60.4207 108.671 60.4207C108.85 60.4207 109.425 60.6692 110.397 61.1663C111.369 61.6633 112.35 61.9118 113.342 61.9118C114.333 61.9118 114.829 61.5164 114.829 60.7257Z" fill="black"/>
<path d="M136.378 56.693C136.378 59.2233 136.963 60.4885 138.134 60.4885C139.304 60.4885 139.889 59.2233 139.889 56.693C139.889 55.5408 139.77 54.6597 139.532 54.0497C139.294 53.4171 138.828 53.1008 138.134 53.1008C137.439 53.1008 136.973 53.4171 136.735 54.0497C136.497 54.6597 136.378 55.5408 136.378 56.693ZM149.229 56.693C149.229 62.8381 145.531 65.9106 138.134 65.9106C130.736 65.9106 127.038 62.8381 127.038 56.693C127.038 53.7786 127.98 51.5194 129.864 49.9153C131.748 48.3113 134.504 47.5093 138.134 47.5093C141.763 47.5093 144.519 48.3113 146.403 49.9153C148.287 51.5194 149.229 53.7786 149.229 56.693Z" fill="black"/>
<path d="M165.12 63.7079L165.15 55.4391C165.15 54.7614 165.001 54.2531 164.704 53.9142C164.406 53.5753 164.029 53.4058 163.573 53.4058C163.137 53.4058 162.73 53.5866 162.353 53.9481C161.996 54.2869 161.818 54.7727 161.818 55.4053V57.4724C161.818 60.4546 161.758 62.4879 161.639 63.5723C161.58 63.9564 161.411 64.2953 161.134 64.589C160.856 64.8827 160.36 65.0634 159.646 65.1312C158.952 65.1764 158.258 65.199 157.564 65.199C156.87 65.199 155.69 65.1538 154.024 65.0634C153.548 65.0408 153.171 64.8827 152.894 64.589C152.616 64.2953 152.457 63.9564 152.418 63.5723C152.279 62.1038 152.209 59.8559 152.209 56.8286C152.209 53.8012 152.249 51.734 152.328 50.627C152.408 49.4974 152.556 48.7631 152.775 48.4243C152.993 48.0854 153.439 47.9159 154.113 47.9159H159.914C160.588 47.9159 161.035 48.0854 161.253 48.4243C161.491 48.7631 161.639 49.3392 161.699 50.1526V50.1865C163.226 48.3791 165.08 47.4754 167.262 47.4754C169.463 47.4754 171.189 48.0854 172.438 49.3054C173.687 50.5253 174.322 52.2085 174.342 54.3547C174.381 56.501 174.401 58.4213 174.401 60.1157C174.401 61.8101 174.391 62.951 174.372 63.5384C174.352 64.1258 174.213 64.5551 173.955 64.8262C173.717 65.0747 173.241 65.199 172.527 65.199L166.816 65.2668C166.181 65.2668 165.735 65.1425 165.477 64.894C165.239 64.6229 165.12 64.2275 165.12 63.7079Z" fill="black"/>
<path fill-rule="evenodd" clip-rule="evenodd" d="M101.306 27.9876C101.297 27.1462 100.612 26.4688 99.7706 26.4688C98.9291 26.4688 98.2445 27.1462 98.2356 27.9876L97.9114 58.6299C97.8982 59.8761 97.0122 60.942 95.7894 61.1827L95.2 61.2988C93.9949 61.5361 93.1144 62.5759 93.079 63.8037L93.0709 64.0873C93.0495 64.8282 93.6443 65.4403 94.3854 65.4403H105.156C105.897 65.4403 106.492 64.8282 106.47 64.0873L106.462 63.8037C106.427 62.5759 105.546 61.5361 104.341 61.2988L103.752 61.1827C102.529 60.942 101.643 59.8761 101.63 58.6299L101.306 27.9876Z" fill="black"/>
<path fill-rule="evenodd" clip-rule="evenodd" d="M96.0508 13.8152C96.0508 13.4151 96.0508 13.2151 96.0682 13.0467C96.2281 11.4981 97.4522 10.274 99.0008 10.1141C99.1692 10.0967 99.3692 10.0967 99.7693 10.0967C100.169 10.0967 100.369 10.0967 100.538 10.1141C102.086 10.274 103.31 11.4981 103.47 13.0467C103.488 13.2151 103.488 13.4151 103.488 13.8152C103.488 13.8826 103.433 13.9373 103.366 13.9373H101.489C101.224 13.9373 101.009 14.1522 101.009 14.4174C101.009 14.6825 101.224 14.8975 101.489 14.8975H103.008C103.273 14.8975 103.488 15.1124 103.488 15.3776C103.488 15.6428 103.273 15.8578 103.008 15.8578H101.489C101.224 15.8578 101.009 16.0727 101.009 16.3378C101.009 16.603 101.224 16.8179 101.489 16.8179H103.008C103.273 16.8179 103.488 17.0329 103.488 17.298C103.488 17.5631 103.273 17.7781 103.008 17.7781H101.489C101.224 17.7781 101.009 17.993 101.009 18.2582C101.009 18.5233 101.224 18.7382 101.489 18.7382H102.249C102.795 18.7382 103.068 18.7382 103.251 18.8906C103.282 18.9161 103.31 18.9443 103.335 18.9748C103.488 19.1577 103.488 19.431 103.488 19.9774V20.7807C103.488 21.1808 103.488 21.3808 103.47 21.5492C103.31 23.0978 102.086 24.3219 100.538 24.4818C100.369 24.4992 100.169 24.4992 99.7693 24.4992C99.3692 24.4992 99.1692 24.4992 99.0008 24.4818C97.4522 24.3219 96.2281 23.0978 96.0682 21.5492C96.0508 21.3808 96.0508 21.1808 96.0508 20.7807V19.9778C96.0508 19.431 96.0508 19.1575 96.2034 18.9746C96.2287 18.9442 96.2568 18.9162 96.2871 18.8908C96.4701 18.7382 96.7435 18.7382 97.2904 18.7382H98.0499C98.315 18.7382 98.5299 18.5233 98.5299 18.2582C98.5299 17.993 98.315 17.7781 98.0499 17.7781H96.5309C96.2657 17.7781 96.0508 17.5631 96.0508 17.298C96.0508 17.0329 96.2657 16.8179 96.5309 16.8179H98.0499C98.315 16.8179 98.5299 16.603 98.5299 16.3378C98.5299 16.0727 98.315 15.8578 98.0499 15.8578H96.5309C96.2658 15.8578 96.0508 15.6428 96.0508 15.3776C96.0508 15.1124 96.2658 14.8975 96.5309 14.8975H98.0499C98.315 14.8975 98.5299 14.6825 98.5299 14.4174C98.5299 14.1522 98.315 13.9373 98.0499 13.9373H96.1729C96.1055 13.9373 96.0508 13.8826 96.0508 13.8152Z" fill="black"/>
<path d="M148.111 2.65559L148.008 3.5557L148.111 2.65559C147.351 2.56893 146.674 2.78442 145.993 3.14154C145.347 3.48065 144.605 3.99848 143.711 4.62327L143.662 4.65711L138.779 8.06816L138.721 8.10839C137.538 8.93505 136.569 9.6112 135.892 10.2437C135.185 10.9036 134.67 11.6281 134.586 12.5779C134.502 13.5276 134.883 14.3313 135.463 15.1048C136.02 15.8462 136.854 16.6816 137.875 17.7028L137.925 17.7525L160.526 40.3683L160.571 40.4135C161.438 41.281 162.153 41.9963 162.794 42.4863C163.468 43.0008 164.167 43.3515 165.007 43.3515C165.847 43.3515 166.546 43.0008 167.22 42.4863C167.861 41.9963 168.576 41.281 169.443 40.4135L169.488 40.3683L172.515 37.3394L172.559 37.2956C173.386 36.4685 174.069 35.785 174.54 35.1697C175.036 34.5228 175.379 33.8526 175.399 33.0438C175.42 32.2349 175.113 31.5481 174.65 30.8766C174.21 30.238 173.563 29.5204 172.78 28.6521L172.738 28.6061L151.994 5.60816L151.955 5.56431C151.224 4.75398 150.618 4.08238 150.064 3.60624C149.481 3.10482 148.87 2.74224 148.111 2.65559Z" fill="#89F0BE" stroke="black" stroke-width="1.81131"/>
<path d="M180.09 4.14654C179.346 4.32549 178.783 4.76088 178.265 5.33091C177.773 5.8722 177.254 6.61429 176.627 7.50972L176.593 7.5582L159.518 31.948L159.486 31.9948C158.888 32.8478 158.393 33.556 158.064 34.1756C157.718 34.8287 157.505 35.4784 157.569 36.2109C157.633 36.9434 157.956 37.5461 158.41 38.1293C158.84 38.6825 159.451 39.294 160.187 40.0304L160.228 40.0708L160.707 40.5506L160.752 40.5957C161.619 41.4632 162.334 42.1786 162.976 42.6686C163.65 43.1831 164.348 43.5338 165.188 43.5338C166.028 43.5338 166.727 43.1831 167.401 42.6686C168.043 42.1786 168.758 41.4633 169.624 40.5958L169.67 40.5506L191.66 18.546L191.712 18.4935C192.856 17.3486 193.786 16.4181 194.395 15.6008C195.026 14.7532 195.432 13.8718 195.278 12.8471C195.125 11.8224 194.479 11.0987 193.627 10.4735C192.806 9.87059 191.644 9.25374 190.215 8.49479L190.149 8.46L184.754 5.59502L184.702 5.56728C183.737 5.05476 182.937 4.63001 182.253 4.37154C181.533 4.09935 180.834 3.9676 180.09 4.14654Z" fill="#74A4FF" stroke="black" stroke-width="1.81131"/>
<rect x="177.696" y="3.32701" width="24.8659" height="62.8346" rx="3.62262" fill="#C4A0FF" stroke="black" stroke-width="1.81131"/>
<rect x="130.842" y="1.74913" width="19.66" height="41.9974" rx="3.62262" fill="#FFC32A" stroke="black" stroke-width="1.81131"/>
</svg>
