<svg width="41" height="40" viewBox="0 0 41 40" fill="none" xmlns="http://www.w3.org/2000/svg">
<path d="M20.4684 23.3332C17.6351 23.3332 15.4684 21.1665 15.4684 18.3332V11.6665C15.4684 8.99984 17.6351 6.6665 20.4684 6.6665C23.1351 6.6665 25.4684 8.83317 25.4684 11.6665V18.3332C25.4684 20.9998 23.1351 23.3332 20.4684 23.3332Z" fill="black"/>
<path d="M27.1355 15V19.1667C27.1355 22.3333 24.1355 25 20.8022 25H20.1355C16.8022 25 13.8022 22.3333 13.8022 19.1667V15C12.8022 15 12.1355 15.6667 12.1355 16.6667V19.1667C12.1355 22.8333 15.1355 26 18.8022 26.5V30C13.8022 30 14.6355 33.3333 14.6355 33.3333H26.3022C26.3022 33.3333 27.1355 30 22.1355 30V26.5C25.8022 25.8333 28.8022 22.8333 28.8022 19.1667V16.6667C28.8022 15.6667 28.1355 15 27.1355 15Z" fill="black"/>
</svg>
