<svg width="100" height="177" viewBox="0 0 100 177" fill="none" xmlns="http://www.w3.org/2000/svg">
<rect x="16.5889" y="35.0718" width="67.2638" height="52.7836" fill="#53596D" stroke="black"/>
<path fill-rule="evenodd" clip-rule="evenodd" d="M42.9773 36.641H14.0311C14.5788 17.1264 30.5701 1.4751 50.2171 1.4751C69.8637 1.4751 85.8549 17.1259 86.403 36.64H57.4583V44.9144H86.4175V53.1901H57.4577V61.4645H86.4175V69.7379H57.4572V78.0123H86.4175V85.2534C86.4175 105.246 70.21 121.454 50.2171 121.454C30.2241 121.454 14.0166 105.246 14.0166 85.2533L14.0166 78.0132H42.978V69.7388H14.0166V61.4638H42.9786V53.1894H14.0166L14.0166 44.9154H42.9773V36.641Z" fill="#D7DDF4"/>
<path d="M14.0311 36.641L13.5313 36.6269L13.5169 37.141H14.0311V36.641ZM42.9773 36.641H43.4773V36.141H42.9773V36.641ZM86.403 36.64V37.14H86.9173L86.9028 36.626L86.403 36.64ZM57.4583 36.64V36.14H56.9583V36.64H57.4583ZM57.4583 44.9144H56.9583V45.4144H57.4583V44.9144ZM86.4175 44.9144H86.9175V44.4144H86.4175V44.9144ZM86.4175 53.1901V53.6901H86.9175V53.1901H86.4175ZM57.4577 53.1901V52.6901H56.9577V53.1901H57.4577ZM57.4577 61.4645H56.9577V61.9645H57.4577V61.4645ZM86.4175 61.4645H86.9175V60.9645H86.4175V61.4645ZM86.4175 69.7379V70.2379H86.9175V69.7379H86.4175ZM57.4572 69.7379V69.2379H56.9572V69.7379H57.4572ZM57.4572 78.0123H56.9572V78.5123H57.4572V78.0123ZM86.4175 78.0123H86.9175V77.5123H86.4175V78.0123ZM14.0166 85.2533H13.5166H14.0166ZM14.0166 78.0132V77.5132H13.5166V78.0132H14.0166ZM42.978 78.0132V78.5132H43.478V78.0132H42.978ZM42.978 69.7388H43.478V69.2388H42.978V69.7388ZM14.0166 69.7388H13.5166V70.2388H14.0166V69.7388ZM14.0166 61.4638V60.9638H13.5166V61.4638H14.0166ZM42.9786 61.4638V61.9638H43.4786V61.4638H42.9786ZM42.9786 53.1894H43.4786V52.6894H42.9786V53.1894ZM14.0166 53.1894H13.5166V53.6894H14.0166L14.0166 53.1894ZM14.0166 44.9154V44.4154H13.5166V44.9154H14.0166ZM42.9773 44.9154V45.4154H43.4773V44.9154H42.9773ZM14.0311 37.141H42.9773V36.141H14.0311V37.141ZM50.2171 0.975098C30.2987 0.975098 14.0865 16.8426 13.5313 36.6269L14.5309 36.655C15.071 17.4103 30.8416 1.9751 50.2171 1.9751V0.975098ZM86.9028 36.626C86.3471 16.8421 70.1352 0.975098 50.2171 0.975098V1.9751C69.5923 1.9751 85.3627 17.4098 85.9032 36.6541L86.9028 36.626ZM57.4583 37.14H86.403V36.14H57.4583V37.14ZM57.9583 44.9144V36.64H56.9583V44.9144H57.9583ZM86.4175 44.4144H57.4583V45.4144H86.4175V44.4144ZM86.9175 53.1901V44.9144H85.9175V53.1901H86.9175ZM57.4577 53.6901H86.4175V52.6901H57.4577V53.6901ZM57.9577 61.4645V53.1901H56.9577V61.4645H57.9577ZM86.4175 60.9645H57.4577V61.9645H86.4175V60.9645ZM86.9175 69.7379V61.4645H85.9175V69.7379H86.9175ZM57.4572 70.2379H86.4175V69.2379H57.4572V70.2379ZM57.9572 78.0123V69.7379H56.9572V78.0123H57.9572ZM86.4175 77.5123H57.4572V78.5123H86.4175V77.5123ZM86.9175 85.2534V78.0123H85.9175V85.2534H86.9175ZM50.2171 121.954C70.4862 121.954 86.9175 105.522 86.9175 85.2534H85.9175C85.9175 104.97 69.9339 120.954 50.2171 120.954V121.954ZM13.5166 85.2533C13.5166 105.522 29.948 121.954 50.2171 121.954V120.954C30.5002 120.954 14.5166 104.97 14.5166 85.2533H13.5166ZM13.5166 78.0132V85.2533H14.5166V78.0132H13.5166ZM42.978 77.5132H14.0166V78.5132H42.978V77.5132ZM42.478 69.7388V78.0132H43.478V69.7388H42.478ZM14.0166 70.2388H42.978V69.2388H14.0166V70.2388ZM13.5166 61.4638V69.7388H14.5166V61.4638H13.5166ZM42.9786 60.9638H14.0166V61.9638H42.9786V60.9638ZM42.4786 53.1894V61.4638H43.4786V53.1894H42.4786ZM14.0166 53.6894H42.9786V52.6894H14.0166L14.0166 53.6894ZM13.5166 44.9154V53.1894H14.5166V44.9154H13.5166ZM42.9773 44.4154H14.0166V45.4154H42.9773V44.4154ZM42.4773 36.641V44.9154H43.4773V36.641H42.4773Z" fill="black"/>
<mask id="path-4-outside-1_667_12229" maskUnits="userSpaceOnUse" x="-0.26416" y="84.2524" width="100" height="92" fill="black">
<rect fill="white" x="-0.26416" y="84.2524" width="100" height="92"/>
<path fill-rule="evenodd" clip-rule="evenodd" d="M95.1602 85.2524C97.1876 85.2524 98.8456 86.8984 98.6927 88.9201C98.3047 94.048 97.1048 99.09 95.1309 103.855C92.6879 109.753 89.1071 115.112 84.5931 119.626C80.079 124.14 74.7201 127.721 68.8222 130.164C64.7607 131.846 60.4984 132.967 56.1532 133.501C55.7189 133.554 55.3887 133.921 55.3887 134.358V159.72C55.3887 159.721 55.3896 159.722 55.3906 159.722C55.3909 159.722 55.3911 159.722 55.3913 159.722L79.6586 168.822C79.9928 168.947 80.2142 169.267 80.2142 169.624V174.38C80.2142 174.853 79.8308 175.236 79.358 175.236H55.389C55.3889 175.236 55.3887 175.236 55.3887 175.236C55.3887 175.237 55.3886 175.237 55.3885 175.237H45.046C45.0459 175.237 45.0457 175.237 45.0457 175.236C45.0457 175.236 45.0456 175.236 45.0455 175.236H21.081C20.6081 175.236 20.2248 174.853 20.2248 174.38V169.624C20.2248 169.267 20.4462 168.947 20.7804 168.822L44.4902 159.931C44.8244 159.806 45.0457 159.486 45.0457 159.129V134.358C45.0457 133.92 44.7157 133.554 44.2813 133.501C39.9374 132.966 35.6764 131.846 31.6161 130.164C25.7182 127.721 20.3593 124.14 15.8452 119.626C11.3312 115.112 7.75045 109.753 5.30747 103.855C3.33353 99.09 2.13363 94.048 1.74564 88.92C1.59268 86.8984 3.25068 85.2524 5.27815 85.2524C7.30562 85.2524 8.93227 86.8992 9.11238 88.9187C9.48367 93.0817 10.4859 97.1713 12.0907 101.046C14.1647 106.053 17.2046 110.602 21.0369 114.435C24.8692 118.267 29.4187 121.307 34.4258 123.381C39.4329 125.455 44.7995 126.522 50.2192 126.522C55.6388 126.522 61.0054 125.455 66.0125 123.381C71.0196 121.307 75.5692 118.267 79.4014 114.435C83.2337 110.602 86.2736 106.053 88.3476 101.046C89.9525 97.1713 90.9547 93.0817 91.3259 88.9187C91.5061 86.8992 93.1327 85.2524 95.1602 85.2524Z"/>
</mask>
<path fill-rule="evenodd" clip-rule="evenodd" d="M95.1602 85.2524C97.1876 85.2524 98.8456 86.8984 98.6927 88.9201C98.3047 94.048 97.1048 99.09 95.1309 103.855C92.6879 109.753 89.1071 115.112 84.5931 119.626C80.079 124.14 74.7201 127.721 68.8222 130.164C64.7607 131.846 60.4984 132.967 56.1532 133.501C55.7189 133.554 55.3887 133.921 55.3887 134.358V159.72C55.3887 159.721 55.3896 159.722 55.3906 159.722C55.3909 159.722 55.3911 159.722 55.3913 159.722L79.6586 168.822C79.9928 168.947 80.2142 169.267 80.2142 169.624V174.38C80.2142 174.853 79.8308 175.236 79.358 175.236H55.389C55.3889 175.236 55.3887 175.236 55.3887 175.236C55.3887 175.237 55.3886 175.237 55.3885 175.237H45.046C45.0459 175.237 45.0457 175.237 45.0457 175.236C45.0457 175.236 45.0456 175.236 45.0455 175.236H21.081C20.6081 175.236 20.2248 174.853 20.2248 174.38V169.624C20.2248 169.267 20.4462 168.947 20.7804 168.822L44.4902 159.931C44.8244 159.806 45.0457 159.486 45.0457 159.129V134.358C45.0457 133.92 44.7157 133.554 44.2813 133.501C39.9374 132.966 35.6764 131.846 31.6161 130.164C25.7182 127.721 20.3593 124.14 15.8452 119.626C11.3312 115.112 7.75045 109.753 5.30747 103.855C3.33353 99.09 2.13363 94.048 1.74564 88.92C1.59268 86.8984 3.25068 85.2524 5.27815 85.2524C7.30562 85.2524 8.93227 86.8992 9.11238 88.9187C9.48367 93.0817 10.4859 97.1713 12.0907 101.046C14.1647 106.053 17.2046 110.602 21.0369 114.435C24.8692 118.267 29.4187 121.307 34.4258 123.381C39.4329 125.455 44.7995 126.522 50.2192 126.522C55.6388 126.522 61.0054 125.455 66.0125 123.381C71.0196 121.307 75.5692 118.267 79.4014 114.435C83.2337 110.602 86.2736 106.053 88.3476 101.046C89.9525 97.1713 90.9547 93.0817 91.3259 88.9187C91.5061 86.8992 93.1327 85.2524 95.1602 85.2524Z" fill="#647DD8"/>
<path d="M98.6927 88.9201L97.6955 88.8446V88.8446L98.6927 88.9201ZM95.1309 103.855L96.0547 104.238L95.1309 103.855ZM84.5931 119.626L85.3002 120.333L84.5931 119.626ZM68.8222 130.164L68.4395 129.24V129.24L68.8222 130.164ZM31.6161 130.164L31.2334 131.088L31.6161 130.164ZM15.8452 119.626L16.5523 118.919L15.8452 119.626ZM5.30747 103.855L6.23135 103.473L5.30747 103.855ZM1.74564 88.92L2.74279 88.8446L1.74564 88.92ZM9.11238 88.9187L8.11634 89.0075V89.0075L9.11238 88.9187ZM12.0907 101.046L11.1668 101.428L12.0907 101.046ZM34.4258 123.381L34.8085 122.457L34.4258 123.381ZM66.0125 123.381L65.6298 122.457L66.0125 123.381ZM88.3476 101.046L87.4237 100.663V100.663L88.3476 101.046ZM91.3259 88.9187L92.322 89.0075V89.0075L91.3259 88.9187ZM44.2813 133.501L44.4035 132.508L44.2813 133.501ZM44.4902 159.931L44.8413 160.867L44.4902 159.931ZM20.7804 168.822L20.4292 167.886L20.7804 168.822ZM79.6586 168.822L80.0097 167.886L79.6586 168.822ZM55.3913 159.722L55.7424 158.785L55.3913 159.722ZM55.3887 159.72H56.3887H55.3887ZM56.1532 133.501L56.0311 132.508L56.1532 133.501ZM55.3887 134.358H56.3887H55.3887ZM99.6898 88.9955C99.8905 86.3431 97.718 84.2524 95.1602 84.2524V86.2524C96.6573 86.2524 97.8008 87.4536 97.6955 88.8446L99.6898 88.9955ZM96.0547 104.238C98.0693 99.3746 99.2939 94.229 99.6898 88.9955L97.6955 88.8446C97.3155 93.8671 96.1403 98.8053 94.207 103.473L96.0547 104.238ZM85.3002 120.333C89.9071 115.727 93.5615 110.257 96.0547 104.238L94.207 103.473C91.8142 109.249 88.3072 114.498 83.886 118.919L85.3002 120.333ZM69.2049 131.088C75.2241 128.595 80.6933 124.94 85.3002 120.333L83.886 118.919C79.4648 123.34 74.2161 126.848 68.4395 129.24L69.2049 131.088ZM56.2753 134.493C60.7099 133.948 65.0598 132.805 69.2049 131.088L68.4395 129.24C64.4616 130.888 60.287 131.985 56.0311 132.508L56.2753 134.493ZM56.3887 159.72V134.358H54.3887V159.72H56.3887ZM55.0402 160.658L79.3075 169.758L80.0097 167.886L55.7424 158.785L55.0402 160.658ZM79.2142 169.624V174.38H81.2142V169.624H79.2142ZM79.358 174.236H55.389V176.236H79.358V174.236ZM45.046 176.237H55.3885V174.237H45.046V176.237ZM45.0455 174.236H21.081V176.236H45.0455V174.236ZM21.2248 174.38V169.624H19.2248V174.38H21.2248ZM21.1315 169.758L44.8413 160.867L44.139 158.995L20.4292 167.886L21.1315 169.758ZM44.0457 134.358V159.129H46.0457V134.358H44.0457ZM31.2334 131.088C35.3773 132.804 39.7259 133.947 44.1592 134.493L44.4035 132.508C40.1489 131.984 35.9756 130.887 31.9988 129.24L31.2334 131.088ZM15.1381 120.333C19.745 124.94 25.2142 128.595 31.2334 131.088L31.9988 129.24C26.2222 126.848 20.9735 123.34 16.5523 118.919L15.1381 120.333ZM4.38359 104.238C6.87683 110.257 10.5312 115.727 15.1381 120.333L16.5523 118.919C12.1312 114.498 8.62407 109.249 6.23135 103.473L4.38359 104.238ZM0.748492 88.9955C1.14447 94.229 2.36905 99.3746 4.38359 104.238L6.23135 103.473C4.29802 98.8053 3.1228 93.8671 2.74279 88.8446L0.748492 88.9955ZM5.27815 84.2524C2.72037 84.2524 0.547809 86.3431 0.748492 88.9955L2.74279 88.8446C2.63754 87.4536 3.781 86.2524 5.27815 86.2524V84.2524ZM10.1084 88.8299C9.88733 86.3509 7.87812 84.2524 5.27815 84.2524V86.2524C6.73313 86.2524 7.97721 87.4476 8.11634 89.0075L10.1084 88.8299ZM13.0146 100.663C11.4486 96.8825 10.4707 92.8919 10.1084 88.8299L8.11634 89.0075C8.49662 93.2714 9.52309 97.4601 11.1668 101.428L13.0146 100.663ZM21.744 113.728C18.0046 109.988 15.0383 105.549 13.0146 100.663L11.1668 101.428C13.2911 106.557 16.4047 111.217 20.3298 115.142L21.744 113.728ZM34.8085 122.457C29.9227 120.433 25.4834 117.467 21.744 113.728L20.3298 115.142C24.2549 119.067 28.9147 122.181 34.0432 124.305L34.8085 122.457ZM50.2192 125.522C44.9308 125.522 39.6943 124.481 34.8085 122.457L34.0432 124.305C39.1716 126.429 44.6682 127.522 50.2192 127.522V125.522ZM65.6298 122.457C60.744 124.481 55.5075 125.522 50.2192 125.522V127.522C55.7701 127.522 61.2667 126.429 66.3952 124.305L65.6298 122.457ZM78.6943 113.728C74.9549 117.467 70.5156 120.433 65.6298 122.457L66.3952 124.305C71.5236 122.181 76.1834 119.067 80.1085 115.142L78.6943 113.728ZM87.4237 100.663C85.4 105.549 82.4337 109.988 78.6943 113.728L80.1085 115.142C84.0337 111.217 87.1472 106.557 89.2715 101.428L87.4237 100.663ZM90.3299 88.8299C89.9676 92.8919 88.9897 96.8825 87.4237 100.663L89.2715 101.428C90.9152 97.4601 91.9417 93.2714 92.322 89.0075L90.3299 88.8299ZM95.1602 84.2524C92.5602 84.2524 90.551 86.3509 90.3299 88.8299L92.322 89.0075C92.4611 87.4476 93.7052 86.2524 95.1602 86.2524V84.2524ZM46.0457 134.358C46.0457 133.405 45.3293 132.622 44.4035 132.508L44.1592 134.493C44.1021 134.486 44.0457 134.435 44.0457 134.358H46.0457ZM44.8413 160.867C45.5658 160.595 46.0457 159.903 46.0457 159.129H44.0457C44.0457 159.069 44.0829 159.016 44.139 158.995L44.8413 160.867ZM21.2248 169.624C21.2248 169.684 21.1876 169.737 21.1315 169.758L20.4292 167.886C19.7048 168.157 19.2248 168.85 19.2248 169.624H21.2248ZM21.081 174.236C21.1604 174.236 21.2248 174.301 21.2248 174.38H19.2248C19.2248 175.405 20.0558 176.236 21.081 176.236V174.236ZM46.0457 175.236C46.0457 174.684 45.5979 174.236 45.0455 174.236V176.236C44.4933 176.236 44.0457 175.789 44.0457 175.236H46.0457ZM45.046 174.237C45.5981 174.237 46.0457 174.684 46.0457 175.236H44.0457C44.0457 175.789 44.4936 176.237 45.046 176.237V174.237ZM54.3887 175.236C54.3887 174.683 54.8377 174.237 55.3885 174.237V176.237C55.9395 176.237 56.3887 175.79 56.3887 175.236H54.3887ZM55.389 174.236C54.8393 174.236 54.3887 174.681 54.3887 175.236H56.3887C56.3887 175.791 55.9385 176.236 55.389 176.236V174.236ZM79.2142 174.38C79.2142 174.301 79.2785 174.236 79.358 174.236V176.236C80.3831 176.236 81.2142 175.405 81.2142 174.38H79.2142ZM79.3075 169.758C79.2513 169.737 79.2142 169.684 79.2142 169.624H81.2142C81.2142 168.85 80.7342 168.157 80.0097 167.886L79.3075 169.758ZM55.3906 160.722C55.2709 160.722 55.1522 160.7 55.0402 160.658L55.7424 158.785C55.6299 158.743 55.5108 158.722 55.3906 158.722V160.722ZM54.3887 159.72C54.3887 160.273 54.8373 160.722 55.3906 160.722V158.722C55.9419 158.722 56.3887 159.169 56.3887 159.72H54.3887ZM56.0311 132.508C55.1053 132.622 54.3887 133.406 54.3887 134.358H56.3887C56.3887 134.436 56.3324 134.486 56.2753 134.493L56.0311 132.508Z" fill="black" mask="url(#path-4-outside-1_667_12229)"/>
</svg>
