<svg width="354" height="402" viewBox="0 0 354 402" fill="none" xmlns="http://www.w3.org/2000/svg">
<path d="M-46.5 255.5C-43.4148 285.33 -41.318 357.842 49.5 385C150 415.053 279.5 405 338.29 298.42C361.711 255.959 351.201 217.537 331.261 195.467M331.261 195.467C315.037 177.51 290.465 169.316 265.604 174.925C210.19 187.428 195.732 242.757 237.672 268.331C270.917 288.604 332.778 260.503 331.261 195.467ZM331.261 195.467C330.341 156.001 306.081 102.934 237.926 38.8223" stroke="#FFC32A" stroke-width="4" stroke-dasharray="8 8"/>
<path d="M210.615 13.0382L226.206 51.609L231.4 33.0884L250.506 26.4186L210.615 13.0382Z" fill="black" stroke="white"/>
</svg>
