<svg width="1096" height="1111" viewBox="0 0 1096 1111" fill="none" xmlns="http://www.w3.org/2000/svg">
<path d="M1058.77 318.118C1091.22 354.118 1108.33 416.79 1070.21 486.05C974.538 659.899 793.555 687.522 630 638.5C482.201 594.201 476.2 510.5 444 416.041C407 307.5 354.74 193.895 242 183C123 171.5 -94.9997 220 55.0003 1142.5M1058.77 318.118C1032.37 288.827 992.382 275.461 951.924 284.61C861.741 305.005 838.213 395.254 906.467 436.971C960.569 470.038 1061.24 424.202 1058.77 318.118ZM1058.77 318.118C1057.28 253.743 1017.8 167.182 906.879 62.6055" stroke="#FFC32A" stroke-width="8" stroke-dasharray="9.49 9.49"/>
<path d="M862.747 21.1747L888.14 83.9924L896.599 53.8292L927.714 42.9665L862.747 21.1747Z" fill="black" stroke="white" stroke-width="1.18681"/>
</svg>
