<svg width="257" height="323" viewBox="0 0 257 323" fill="none" xmlns="http://www.w3.org/2000/svg">
<path d="M267.998 166.413L267.648 165.293L266.598 165.815L264.493 166.862L263.598 167.307L264.043 168.203C265.234 170.598 266.702 174.714 267.19 179.19C267.678 183.675 267.17 188.384 264.58 192.11C261.26 196.885 256.667 199.467 252.36 200.778C248.036 202.095 244.065 202.109 242.104 201.804C240.45 201.548 239.22 200.144 237.809 198.298C237.726 198.19 237.642 198.08 237.558 197.969C236.969 197.195 236.345 196.374 235.679 195.694C234.913 194.912 233.993 194.211 232.849 193.959C231.804 193.729 231.15 193.818 230.573 193.942C230.515 193.954 230.459 193.966 230.406 193.978C229.999 194.068 229.716 194.13 229.217 194.078C228.613 194.014 227.665 193.771 226.007 193.053C224.356 192.339 222.053 191.178 218.754 189.323C208.404 183.504 201.855 172.964 199.899 168.461L199.822 168.283L199.684 168.147C198.77 167.246 197.718 166.061 197.211 165.199C197.294 165.217 197.386 165.24 197.487 165.268C198.79 165.624 201.217 165.825 204.073 165.931C206.97 166.039 210.423 166.051 213.851 165.993C217.281 165.936 220.695 165.808 223.517 165.636C226.307 165.466 228.599 165.247 229.728 164.99C230.808 164.745 231.646 164.46 232.257 164.131C232.836 163.82 233.396 163.37 233.582 162.704C233.792 161.952 233.429 161.334 233.047 160.958C232.672 160.588 232.162 160.316 231.653 160.123C231.42 160.034 231.142 159.99 230.898 159.961C230.633 159.931 230.318 159.91 229.967 159.896C229.264 159.869 228.365 159.869 227.329 159.887C225.254 159.922 222.572 160.03 219.697 160.153C219.271 160.171 218.841 160.19 218.408 160.208C212.97 160.442 207.068 160.695 203.194 160.607C195.802 160.44 192.09 154.237 190.154 151.002C190.045 150.819 189.941 150.646 189.842 150.483C189.536 149.978 189.059 148.933 188.472 147.499C187.894 146.088 187.234 144.364 186.562 142.545C185.217 138.907 183.832 134.917 182.967 132.354L182.955 132.317L182.94 132.282C182.677 131.664 182.414 130.953 182.228 130.295C182.103 129.852 182.028 129.479 181.996 129.195C182.011 129.204 182.027 129.213 182.043 129.223C182.338 129.4 182.723 129.682 183.212 130.102C185.921 132.431 189.722 134.211 193.635 135.707C195.999 136.611 198.492 137.442 200.847 138.226C202.362 138.731 203.82 139.216 205.15 139.69C208.805 140.993 214.959 141.512 220.088 141.421C222.665 141.376 225.053 141.175 226.8 140.82C227.662 140.644 228.44 140.417 229.016 140.113C229.504 139.854 230.312 139.278 230.177 138.283C230.085 137.608 229.644 137.116 229.215 136.78C228.773 136.434 228.209 136.147 227.605 135.901C226.393 135.406 224.817 134.999 223.207 134.658C221.587 134.316 219.883 134.03 218.395 133.791C218.084 133.741 217.784 133.693 217.497 133.647C216.393 133.472 215.481 133.326 214.87 133.201C213.93 133.008 212.501 132.819 210.697 132.58C209.385 132.407 207.874 132.206 206.208 131.959C202.194 131.364 197.134 130.481 191.343 129C185.722 127.562 182.722 125.012 181.061 122.476C179.381 119.913 178.994 117.256 178.799 115.452C178.607 113.683 178.62 111.734 178.645 109.372L178.648 109.133C178.672 106.841 178.701 104.2 178.547 101.08C178.392 97.9178 178.916 96.6441 179.312 96.212C179.474 96.0358 179.612 95.9987 179.73 95.9952C179.877 95.9908 180.067 96.0426 180.259 96.1588C180.471 96.2869 181.049 96.6523 181.89 97.1849C183.568 98.2465 186.296 99.9719 189.266 101.803C193.664 104.515 198.589 107.456 201.07 108.573C202.042 109.011 203.583 109.856 205.47 110.89C205.831 111.087 206.204 111.292 206.589 111.502C208.955 112.795 211.694 114.265 214.321 115.478C216.925 116.679 219.516 117.675 221.566 117.954C222.584 118.093 223.602 118.075 224.446 117.7C225.368 117.29 225.96 116.507 226.139 115.435C226.455 113.543 225.759 111.839 224.609 110.399C223.469 108.971 221.83 107.731 220.073 106.691C216.555 104.609 212.322 103.185 209.865 102.627C209.618 102.57 209.366 102.514 209.107 102.456C206.862 101.955 204.17 101.354 200.728 99.9089C196.888 98.2976 192.091 95.6239 186.011 90.8427C180.355 86.3956 180.193 79.7753 182.131 73.2077C184.065 66.6516 188.012 60.4949 190.038 57.4676C194.339 51.042 193.274 45.1872 190.986 41.456C190.473 40.6195 190.113 39.9483 189.878 39.4148C189.639 38.8702 189.554 38.5247 189.539 38.3254C189.538 38.312 189.538 38.2999 189.537 38.2889C189.568 38.2821 189.608 38.2749 189.66 38.2688C189.656 38.2693 189.666 38.2681 189.698 38.266C189.728 38.2641 189.767 38.2619 189.817 38.2596C189.918 38.255 190.052 38.2501 190.219 38.2452C190.553 38.2352 191.007 38.225 191.566 38.2147C192.684 38.1941 194.212 38.1731 196.018 38.1521C199.63 38.1101 204.346 38.0683 209.099 38.0299C212.724 38.0006 216.372 37.9732 219.57 37.9492C224.752 37.9104 228.749 37.8804 229.533 37.8655C230.558 37.8459 231.255 38.1041 231.925 38.7526C232.662 39.4658 233.398 40.6827 234.325 42.7068C235.189 44.591 236.109 48.4976 236.555 53.1011C236.999 57.6838 236.959 62.8187 235.987 67.1401C234.956 71.7264 234.915 76.3694 235.427 79.9405C235.683 81.7222 236.083 83.2803 236.594 84.4475C236.848 85.0296 237.147 85.5528 237.498 85.9617C237.843 86.3638 238.309 86.7334 238.903 86.8426C240.006 87.0454 240.964 86.3796 241.677 85.5626C242.422 84.7089 243.125 83.4481 243.763 81.8565C245.043 78.6592 246.144 73.9031 246.701 67.7534C247.831 55.2797 242.834 45.0872 241.139 41.6796C240.734 40.8653 240.471 40.2113 240.322 39.6986C240.17 39.1726 240.157 38.8653 240.18 38.7139C240.181 38.7039 240.183 38.6953 240.184 38.688C240.238 38.6769 240.351 38.6647 240.551 38.6876C240.83 38.7198 241.515 38.9269 242.601 39.3286C243.642 39.7133 244.938 40.2326 246.372 40.8168C246.94 41.0481 247.529 41.2895 248.13 41.5361C250.553 42.5289 253.181 43.606 255.463 44.4517C260.863 46.4535 265.008 49.9792 266.87 56.9162C267.789 60.3389 267.43 64.0773 266.725 67.8317C266.475 69.1621 266.188 70.4676 265.904 71.7559C265.788 72.286 265.672 72.8131 265.559 73.3379C265.178 75.1185 264.839 76.8607 264.692 78.4813C264.428 81.3966 263.59 83.2592 262.069 86.3538C261.971 86.554 261.87 86.759 261.766 86.9693C260.258 90.027 258.199 94.2035 255.615 101.292C254.232 105.088 253.645 107.822 253.662 109.715C253.671 110.664 253.832 111.483 254.192 112.128C254.571 112.806 255.146 113.246 255.843 113.421C256.505 113.588 257.194 113.497 257.821 113.298C258.456 113.096 259.095 112.763 259.702 112.358C260.913 111.551 262.097 110.39 262.972 109.162C264.678 106.769 266.161 103.149 267.611 99.1864C268.134 97.7552 268.654 96.2774 269.18 94.7793C270.134 92.0662 271.112 89.2867 272.177 86.5984C273.911 82.2225 274.364 76.1009 274.252 70.6865C274.14 65.2761 273.457 60.348 272.789 58.3162C272.482 57.3807 272.26 56.628 272.131 56.0316C272.009 55.4669 271.992 55.1333 272.014 54.9551C272.132 54.949 272.364 54.962 272.765 55.0596C273.797 55.3103 275.358 56.1388 277.531 57.583C279.671 59.0052 282.293 60.9463 285.419 63.3121C291.603 67.9917 295.613 72.333 297.062 78.8932C297.77 82.0956 297.189 85.5307 296.132 89.0593C295.605 90.8175 294.97 92.5681 294.336 94.3059L294.279 94.4638C293.668 96.1379 293.06 97.8047 292.578 99.4079C292.14 100.866 290.881 103.073 289.127 105.672C287.396 108.239 285.252 111.087 283.134 113.8C281.417 116 279.725 118.1 278.29 119.881C277.956 120.296 277.635 120.694 277.332 121.071C276.531 122.067 275.844 122.928 275.332 123.594C275.077 123.927 274.859 124.218 274.691 124.457C274.537 124.676 274.38 124.913 274.289 125.113C274.085 125.561 273.928 125.98 273.846 126.353C273.773 126.681 273.709 127.176 273.935 127.631C274.064 127.89 274.274 128.105 274.55 128.236C274.81 128.359 275.07 128.38 275.279 128.368C275.676 128.345 276.077 128.188 276.434 128.011C276.713 127.872 277.093 127.579 277.478 127.262C277.896 126.918 278.418 126.462 279.016 125.918C280.214 124.831 281.74 123.375 283.389 121.726C286.683 118.435 290.505 114.342 293.208 110.857C295.945 107.329 298.321 102.789 300.074 98.8328C301.821 94.8908 302.995 91.426 303.286 90.0239C303.458 89.1994 303.386 88.2962 303.278 87.5087C303.225 87.1239 303.159 86.7401 303.099 86.3854L303.09 86.3367C303.026 85.9609 302.969 85.6226 302.93 85.3138C302.891 85.0024 302.876 84.7578 302.884 84.5703C302.886 84.5189 302.89 84.4771 302.895 84.4437C302.956 84.4479 303.043 84.4594 303.163 84.4868C303.284 84.5147 303.534 84.6344 303.915 84.9857C304.281 85.3234 304.698 85.8081 305.158 86.4364C306.079 87.6919 307.101 89.4161 308.18 91.4161C309.644 94.1307 311.17 97.2716 312.654 100.326C313.36 101.78 314.057 103.214 314.733 104.573C316.845 108.82 318.135 111.448 318.388 113.803C318.626 116.022 317.939 118.108 315.599 121.235C313.294 124.315 308.478 128.178 303.398 131.652C298.343 135.109 293.169 138.083 290.255 139.406C288.714 140.106 287.503 140.812 286.591 141.487C285.691 142.153 285.032 142.825 284.659 143.474C284.307 144.088 284.063 144.989 284.663 145.728C285.2 146.389 286.082 146.472 286.78 146.398C287.511 146.321 288.828 145.943 290.389 145.428C291.991 144.9 293.958 144.19 296.048 143.394C300.226 141.802 304.933 139.851 308.251 138.288C311.776 136.627 314.277 133.788 316.169 130.749C317.867 128.021 319.115 125.062 320.167 122.567C320.283 122.292 320.397 122.022 320.509 121.759C321.084 120.403 321.513 119.518 321.876 119.034C321.933 118.958 321.98 118.904 322.018 118.864C322.093 118.936 322.203 119.058 322.345 119.26C322.569 119.579 322.83 120.031 323.135 120.645C323.744 121.873 324.478 123.64 325.412 126.038C328.793 134.715 327.491 142.45 326.806 146.517C326.756 146.814 326.709 147.091 326.668 147.347C326.54 148.14 326.103 149.332 325.429 150.82C324.765 152.284 323.911 153.95 323.006 155.663C322.625 156.384 322.234 157.116 321.844 157.844C320.405 160.534 318.992 163.177 318.224 165.054C317.946 165.734 317.777 166.483 317.641 167.227C317.579 167.566 317.522 167.918 317.464 168.268C317.458 168.305 317.452 168.341 317.446 168.378C317.382 168.769 317.317 169.162 317.242 169.561C316.942 171.156 316.491 172.804 315.433 174.401C313.339 177.563 308.636 180.848 296.889 182.507C278.546 185.099 269.99 172.807 267.998 166.413ZM196.595 165.13C196.595 165.129 196.597 165.129 196.603 165.128C196.598 165.129 196.596 165.13 196.595 165.13ZM181.996 128.72C181.997 128.72 181.996 128.721 181.995 128.725C181.996 128.721 181.996 128.72 181.996 128.72ZM189.541 38.2055C189.542 38.2055 189.541 38.2071 189.54 38.21C189.541 38.2069 189.541 38.2055 189.541 38.2055Z" fill="#3C7B3A" stroke="black" stroke-width="2"/>
<path d="M237.617 214.705L236.598 214.092L236.169 215.201L234.85 218.614L234.489 219.546L235.421 219.907C239.04 221.307 244.604 224.331 249.432 228.816C254.26 233.302 258.269 239.17 258.98 246.263C259.884 255.278 257.235 263.197 253.692 269.348C250.141 275.512 245.726 279.841 243.212 281.647C240.961 283.265 238.096 282.966 234.835 282.431C234.639 282.399 234.442 282.366 234.243 282.333C232.857 282.102 231.416 281.862 230.064 281.82C228.504 281.771 226.928 281.977 225.55 282.845C224.265 283.655 223.687 284.387 223.207 285.086C223.157 285.16 223.108 285.232 223.061 285.301C222.694 285.844 222.393 286.288 221.718 286.824C220.102 288.105 216.365 289.869 205.512 292.82C188.481 297.451 171.178 292.715 164.708 289.786L164.517 289.7L164.308 289.697C162.301 289.672 159.756 289.451 158.374 288.945C158.139 288.859 157.976 288.778 157.869 288.711C157.888 288.69 157.909 288.667 157.934 288.642C158.139 288.436 158.503 288.162 159.102 287.824C160.811 286.862 163.626 284.535 166.874 281.595C170.152 278.627 173.953 274.957 177.664 271.233C181.376 267.509 185.004 263.724 187.936 260.524C190.849 257.346 193.127 254.689 194.093 253.245C195.031 251.842 195.648 250.683 195.981 249.739C196.3 248.837 196.431 247.935 196.092 247.193C195.7 246.335 194.878 246.06 194.168 246.051C193.479 246.042 192.724 246.262 192.015 246.576C191.735 246.7 191.431 246.912 191.143 247.136C190.838 247.374 190.483 247.677 190.09 248.032C189.303 248.743 188.323 249.694 187.203 250.819C184.961 253.069 182.121 256.05 179.074 259.26C178.622 259.738 178.164 260.22 177.704 260.705C171.951 266.771 165.688 273.375 161.33 277.432C152.829 285.345 142.635 282.351 137.464 280.833C137.161 280.744 136.876 280.66 136.61 280.584C135.762 280.342 134.221 279.678 132.215 278.715C130.233 277.763 127.865 276.55 125.395 275.247C120.456 272.642 115.138 269.689 111.749 267.765L111.713 267.745L111.675 267.727C110.789 267.318 109.81 266.802 108.964 266.259C108.09 265.697 107.462 265.171 107.173 264.763C107.122 264.69 107.092 264.636 107.074 264.598C107.195 264.508 107.464 264.372 107.988 264.247C108.513 264.121 109.229 264.02 110.179 263.964C115.295 263.66 121.108 261.6 126.82 259.085C130.275 257.564 133.78 255.835 137.103 254.194C139.251 253.134 141.324 252.111 143.258 251.206C148.429 248.787 155.633 242.843 161.172 237.276C163.951 234.482 166.358 231.736 167.912 229.517C168.682 228.416 169.281 227.391 169.594 226.523C169.75 226.091 169.859 225.633 169.844 225.189C169.828 224.725 169.67 224.223 169.244 223.849C168.604 223.287 167.765 223.209 167.023 223.29C166.263 223.372 165.413 223.64 164.536 224.003C162.775 224.732 160.686 225.944 158.599 227.282C156.503 228.625 154.366 230.124 152.505 231.447C152.119 231.721 151.745 231.988 151.387 232.243C150.005 233.228 148.85 234.052 148.048 234.573C146.844 235.356 145.12 236.652 142.929 238.3C141.321 239.51 139.46 240.91 137.367 242.435C132.377 246.072 125.957 250.511 118.161 255.066C110.512 259.537 104.683 259.93 100.35 258.866C95.9822 257.794 92.9781 255.206 91.0384 253.4C89.1259 251.62 87.2722 249.423 85.0588 246.776L84.8359 246.51C82.6849 243.938 80.2129 240.982 77.0877 237.689C73.9146 234.346 73.1442 232.247 73.1763 231.095C73.2036 230.115 73.847 229.609 74.6066 229.429C74.9598 229.345 75.9444 229.133 77.3785 228.824C80.2385 228.209 84.8862 227.208 89.8795 226.07C97.3036 224.38 105.482 222.388 109.237 220.99C110.742 220.43 113.261 219.715 116.317 218.847C116.901 218.681 117.504 218.51 118.124 218.333C121.954 217.24 126.35 215.949 130.376 214.493C134.378 213.046 138.112 211.402 140.563 209.573C141.784 208.661 142.783 207.633 143.286 206.472C143.817 205.246 143.76 203.95 143.011 202.691C141.642 200.388 139.37 199.272 136.799 198.91C134.25 198.552 131.323 198.916 128.43 199.632C122.638 201.066 116.676 203.987 113.481 205.968C113.156 206.169 112.825 206.377 112.486 206.589C109.539 208.433 105.972 210.665 100.771 212.757C94.9725 215.089 87.1163 217.255 75.8556 218.446C70.4677 219.017 66.1781 217.436 62.7117 214.578C59.217 211.696 56.5274 207.486 54.4606 202.776C50.3244 193.349 48.8075 182.221 48.1581 176.685C46.8097 165.191 40.2214 159.933 34.2634 158.263C32.8956 157.88 31.8455 157.514 31.0603 157.163C30.2641 156.808 29.7992 156.495 29.5487 156.244C29.318 156.013 29.3235 155.896 29.3251 155.862C29.3289 155.784 29.3772 155.595 29.6471 155.269C29.777 155.112 30.4933 154.374 31.7308 153.128C32.9421 151.909 34.6037 150.251 36.5703 148.297C40.5031 144.389 45.6502 139.301 50.8416 134.177C54.8039 130.267 58.7935 126.333 62.2882 122.888C67.9458 117.31 72.306 113.011 73.1521 112.159C74.3613 110.94 75.4975 110.427 76.9661 110.431C78.5301 110.436 80.5493 111.026 83.4956 112.284C86.2898 113.478 91.0494 116.866 95.9266 121.514C100.786 126.146 105.656 131.927 108.725 137.824C111.921 143.967 116.254 149.129 120.178 152.518C122.137 154.21 124.029 155.492 125.661 156.225C126.475 156.591 127.265 156.839 127.991 156.913C128.715 156.986 129.462 156.894 130.085 156.471C131.23 155.694 131.633 154.224 131.64 152.622C131.648 150.97 131.244 148.884 130.441 146.461C128.831 141.603 125.549 135.184 120.332 127.779C109.792 112.816 94.6974 106.866 89.6005 104.895C88.3698 104.419 87.4384 103.964 86.763 103.538C86.0771 103.106 85.7171 102.742 85.5508 102.474C85.4077 102.244 85.4186 102.112 85.4547 102.002C85.5078 101.842 85.6758 101.58 86.1072 101.244C86.5063 100.934 87.5182 100.407 89.0786 99.6995C90.5961 99.0112 92.5221 98.1994 94.6542 97.3156C95.5006 96.9647 96.3791 96.6027 97.276 96.2331C100.883 94.7467 104.787 93.1379 108.091 91.6423C112.1 89.8283 116.102 88.8122 120.174 88.9549C124.237 89.0972 128.436 90.3954 132.841 93.3099C137.178 96.1785 140.374 100.782 143.177 105.723C144.17 107.474 145.1 109.242 146.014 110.978C146.389 111.69 146.761 112.397 147.133 113.095C148.404 115.479 149.677 117.755 151.039 119.688C153.571 123.282 154.437 126.324 155.708 131.398C155.79 131.726 155.873 132.062 155.959 132.406C157.205 137.408 158.904 144.226 162.789 154.835C164.867 160.509 166.796 164.111 168.563 166.136C169.448 167.151 170.353 167.841 171.287 168.148C172.262 168.468 173.194 168.343 174.001 167.867C174.771 167.413 175.372 166.675 175.837 165.847C176.307 165.009 176.675 164.015 176.947 162.957C177.492 160.843 177.687 158.364 177.488 156.13C177.097 151.735 175.315 146.193 173.14 140.234C172.36 138.098 171.53 135.907 170.686 133.682C169.155 129.642 167.581 125.492 166.195 121.359C163.977 114.742 158.709 107.513 153.447 101.626C148.191 95.7455 142.788 91.036 140.17 89.5211C138.94 88.8092 137.968 88.2026 137.243 87.6659C136.5 87.1152 136.112 86.7044 135.945 86.4093C135.871 86.2767 135.859 86.1993 135.858 86.1633C135.858 86.1325 135.862 86.0807 135.913 85.99C136.036 85.7688 136.374 85.4224 137.148 84.958C138.605 84.0831 141.184 83.3245 144.94 82.607C148.659 81.8966 153.399 81.2485 159.085 80.5349C170.37 79.1185 179.012 79.6456 186.942 85.4582C190.844 88.3178 193.508 92.8345 195.711 97.9138C196.809 100.445 197.779 103.082 198.733 105.688L198.817 105.919C199.738 108.436 200.649 110.925 201.637 113.207C202.575 115.374 203.294 119.247 203.835 124.008C204.372 128.73 204.722 134.2 204.972 139.482C205.174 143.766 205.309 147.912 205.423 151.425C205.45 152.243 205.475 153.026 205.5 153.768C205.566 155.731 205.629 157.416 205.698 158.695C205.733 159.334 205.77 159.881 205.812 160.315C205.85 160.725 205.899 161.107 205.973 161.372C206.17 162.07 206.385 162.665 206.626 163.126C206.842 163.537 207.186 164.053 207.746 164.269C208.066 164.393 208.412 164.4 208.739 164.285C209.043 164.179 209.275 163.987 209.446 163.802C209.777 163.443 210.033 162.934 210.247 162.381C210.391 162.008 210.522 161.349 210.646 160.572C210.777 159.756 210.916 158.702 211.057 157.465C211.339 154.989 211.633 151.75 211.88 148.164C212.373 140.999 212.685 132.395 212.348 125.671C212.009 118.893 210.321 111.36 208.495 105.109C206.673 98.8754 204.683 93.8133 203.696 91.9893C203.14 90.9615 202.248 90.0739 201.385 89.3184C200.967 88.9516 200.534 88.599 200.129 88.269L200.075 88.2249C199.649 87.8771 199.258 87.5571 198.914 87.2489C198.569 86.9391 198.3 86.6665 198.11 86.4219C197.916 86.1727 197.849 86.0083 197.83 85.9159C197.819 85.8588 197.819 85.8137 197.871 85.7274C197.942 85.6111 198.12 85.4122 198.534 85.1563L198.009 84.3055L198.534 85.1563C198.805 84.9894 199.285 84.8535 200.06 84.8359C200.818 84.8186 201.763 84.9162 202.878 85.1238C205.109 85.5389 207.89 86.3679 210.981 87.438C215.178 88.8906 219.853 90.7534 224.392 92.5616C226.548 93.4206 228.673 94.2673 230.701 95.0519C237.033 97.5009 241.024 99.0628 243.601 101.466C246.081 103.777 247.335 106.971 247.738 113.028C248.137 119.02 246.489 128.545 244.202 137.837C241.922 147.101 239.049 155.972 237.082 160.602C236.065 162.995 235.42 165.031 235.07 166.703C234.722 168.36 234.651 169.719 234.838 170.732C235.012 171.677 235.52 172.733 236.664 172.884C237.675 173.018 238.565 172.321 239.21 171.556C239.89 170.748 240.948 168.982 242.182 166.73C243.436 164.442 244.92 161.56 246.459 158.447C249.537 152.223 252.853 145.039 255.008 139.777C257.243 134.319 257.306 128.622 256.508 123.283C255.79 118.483 254.363 113.903 253.148 110.003C253.014 109.573 252.883 109.152 252.756 108.74C252.104 106.631 251.712 105.126 251.646 104.121C251.613 103.619 251.673 103.366 251.725 103.255C251.748 103.205 251.762 103.177 251.877 103.148C252.049 103.104 252.386 103.09 252.976 103.213C253.552 103.332 254.288 103.563 255.214 103.923C257.068 104.641 259.566 105.826 262.873 107.491C274.931 113.564 280.9 123.634 284.016 128.891C284.243 129.274 284.455 129.632 284.653 129.961C285.302 131.037 285.969 132.885 286.642 135.263C287.308 137.615 287.955 140.392 288.588 143.263C288.856 144.482 289.123 145.72 289.388 146.95C290.361 151.472 291.31 155.878 292.24 158.755C292.563 159.757 293.069 160.733 293.623 161.699C293.875 162.138 294.143 162.586 294.414 163.037C294.442 163.084 294.47 163.131 294.498 163.178C294.799 163.681 295.103 164.191 295.403 164.721C296.599 166.832 297.708 169.214 298.075 172.224C298.808 178.226 296.629 187.085 285.246 201.538C276.243 212.968 266.413 217.48 257.831 218.544C249.212 219.611 241.781 217.209 237.617 214.705Z" fill="#4DA04B" stroke="black" stroke-width="2"/>
</svg>
