<svg width="222" height="221" viewBox="0 0 222 221" fill="none" xmlns="http://www.w3.org/2000/svg">
<circle cx="111" cy="110.5" r="109.5" fill="#FFDF34" stroke="black" stroke-width="2"/>
<path d="M179 113C179 122.061 177.215 131.034 173.748 139.405C170.28 147.777 165.198 155.383 158.79 161.79C152.383 168.198 144.777 173.28 136.405 176.748C128.034 180.215 119.061 182 110 182C100.939 182 91.9663 180.215 83.5948 176.748C75.2234 173.28 67.6169 168.198 61.2096 161.79C54.8024 155.383 49.7199 147.777 46.2523 139.405C42.7847 131.034 41 122.061 41 113L46.4875 113C46.4875 121.341 48.1303 129.599 51.3221 137.305C54.5139 145.011 59.1922 152.012 65.0899 157.91C70.9875 163.808 77.9891 168.486 85.6948 171.678C93.4005 174.87 101.659 176.513 110 176.513C118.341 176.513 126.599 174.87 134.305 171.678C142.011 168.486 149.012 163.808 154.91 157.91C160.808 152.012 165.486 145.011 168.678 137.305C171.87 129.599 173.513 121.341 173.513 113H179Z" fill="black"/>
<ellipse cx="86" cy="82.3335" rx="12.5" ry="25" fill="black"/>
<ellipse cx="136" cy="82.3335" rx="12.5" ry="25" fill="black"/>
<ellipse cx="44" cy="103" rx="8" ry="14" transform="rotate(-90 44 103)" fill="#F99292"/>
<ellipse cx="175" cy="103" rx="8" ry="14" transform="rotate(-90 175 103)" fill="#F99292"/>
</svg>
