<svg width="56" height="56" viewBox="0 0 56 56" fill="none" xmlns="http://www.w3.org/2000/svg">
<rect x="0.5" y="0.833984" width="55" height="55" rx="27.5" fill="white"/>
<path d="M38.3943 14.584L37.1666 16.9753C39.8675 20.3231 41.3407 24.6275 41.3407 29.1709C41.3407 33.2362 40.1131 36.8231 38.1488 40.1709L39.8675 42.084C42.5684 38.497 44.0416 33.9536 44.0416 29.1709C43.7961 23.6709 41.8318 18.6492 38.3943 14.584V14.584Z" fill="black"/>
<path d="M36.1481 19.167L34.875 21.7197C36.1481 23.8083 36.912 26.129 36.912 28.6818C36.912 31.0024 36.1481 33.3231 35.1296 35.4117L36.912 37.5003C38.4398 34.9476 39.4583 31.9307 39.4583 28.9138C39.2037 25.2007 38.1852 21.9518 36.1481 19.167V19.167Z" fill="black"/>
<path d="M21.125 21.4587H11.9584V35.2087H21.125L32.5834 44.3753V12.292L21.125 21.4587Z" fill="black"/>
</svg>
