<svg width="48" height="48" viewBox="0 0 48 48" fill="none" xmlns="http://www.w3.org/2000/svg">
<g clip-path="url(#clip0_702_4854)">
<path fill-rule="evenodd" clip-rule="evenodd" d="M45.4933 9.66813C46.238 10.4177 46.7728 11.3496 47.0442 12.3708C48.0479 16.1399 48.0479 23.9999 48.0479 23.9999C48.0479 23.9999 48.0479 31.8599 47.0442 35.629C46.7728 36.6502 46.238 37.5822 45.4933 38.3317C44.7485 39.0812 43.82 39.622 42.8006 39.8999C39.0479 40.909 24.0479 40.909 24.0479 40.909C24.0479 40.909 9.04785 40.909 5.29512 39.8999C4.27571 39.622 3.34717 39.0812 2.60243 38.3317C1.85768 37.5822 1.32286 36.6502 1.05149 35.629C0.0478516 31.8599 0.0478516 23.9999 0.0478516 23.9999C0.0478516 23.9999 0.0478516 16.1399 1.05149 12.3708C1.32286 11.3496 1.85768 10.4177 2.60243 9.66813C3.34717 8.9186 4.27571 8.37782 5.29512 8.09991C9.04785 7.09082 24.0479 7.09082 24.0479 7.09082C24.0479 7.09082 39.0479 7.09082 42.8006 8.09991C43.82 8.37782 44.7485 8.9186 45.4933 9.66813ZM19.1388 16.8628V31.1373L31.6842 24.0001L19.1388 16.8628Z" fill="white"/>
</g>
<defs>
<clipPath id="clip0_702_4854">
<rect width="48" height="48" fill="white"/>
</clipPath>
</defs>
</svg>
